<svg xmlns="http://www.w3.org/2000/svg" viewBox="0 0 1406 336" role="img" aria-label="Airsun">
  <defs>
    <mask id="asun-mask"><rect x="0" y="0" width="1406" height="336" fill="#000"/><path d="M1161.47 19.20L1162.60 16.84L1162.76 16.41L1163.52 13.55L1163.60 13.05L1163.77 10.19L1163.75 9.71L1163.35 6.86L1163.26 6.45L1162.36 3.59L1161.93 2.78L1160.10 0.49L1159.68 0.08L1159.17 -0.23L1158.60 -0.41L1158.00 -0.44L1154.69 -0.24L1154.03 -0.11L1151.38 0.80L1150.61 1.23L1148.62 2.85L1148.03 3.56L1146.70 5.89L1146.43 6.60L1145.77 9.65L1145.71 10.11L1145.63 13.41L1145.63 13.47L1145.63 16.47L1145.63 19.47L1145.63 22.47L1145.63 25.47L1145.63 28.47L1145.63 31.47L1145.63 34.47L1145.62 37.47L1145.62 40.47L1145.62 43.47L1145.62 46.47L1145.62 49.47L1145.61 52.47L1145.61 55.47L1145.61 58.47L1145.61 61.47L1145.61 64.47L1145.60 67.47L1145.60 70.47L1145.60 73.47L1145.60 76.47L1145.59 79.47L1145.59 82.47L1145.59 85.47L1145.59 88.47L1145.59 91.47L1145.58 94.47L1145.58 97.47L1145.58 100.47L1145.58 103.47L1145.58 106.47L1145.58 109.47L1145.58 112.47L1145.57 115.47L1145.57 118.47L1145.57 121.47L1145.57 124.48L1145.57 127.48L1145.57 130.48L1145.57 133.48L1145.58 136.48L1145.58 139.48L1145.58 142.48L1145.58 145.48L1145.58 148.48L1145.59 151.48L1145.59 154.48L1145.59 157.48L1145.60 160.48L1145.60 163.48L1145.60 166.48L1145.61 169.48L1145.61 172.48L1145.62 175.48L1145.63 178.48L1145.63 181.48L1145.64 184.48L1145.65 187.49L1145.66 190.49L1145.67 193.49L1145.68 196.49L1145.69 199.48L1145.69 202.50L1145.64 205.49L1145.55 208.48L1145.42 211.45L1145.23 214.41L1144.99 217.36L1144.70 220.30L1144.36 223.22L1143.97 226.13L1143.53 229.03L1143.03 231.92L1142.48 234.79L1141.87 237.65L1141.20 240.50L1140.48 243.34L1139.70 246.16L1138.86 248.98L1137.96 251.78L1136.99 254.56L1135.97 257.34L1134.88 260.11L1133.74 262.86L1132.50 265.62L1131.20 268.34L1129.83 271.00L1128.39 273.59L1126.89 276.12L1125.33 278.59L1123.70 280.99L1122.01 283.33L1120.25 285.60L1118.42 287.80L1116.53 289.94L1114.58 292.01L1112.56 294.02L1110.47 295.96L1108.31 297.84L1106.08 299.65L1103.79 301.39L1101.43 303.07L1099.00 304.67L1096.49 306.21L1093.92 307.69L1091.28 309.09L1088.57 310.43L1085.80 311.69L1083.04 312.84L1080.27 313.91L1077.49 314.89L1074.70 315.79L1071.89 316.59L1069.08 317.31L1066.26 317.95L1063.42 318.50L1060.58 318.97L1057.72 319.36L1054.85 319.67L1051.96 319.90L1049.07 320.05L1046.16 320.12L1043.24 320.12L1040.31 320.04L1037.37 319.88L1034.41 319.65L1031.44 319.35L1028.45 318.97L1025.40 318.52L1022.34 317.98L1019.33 317.36L1016.38 316.67L1013.48 315.90L1010.64 315.06L1007.85 314.15L1005.12 313.16L1002.44 312.09L999.81 310.95L997.24 309.73L994.72 308.43L992.26 307.06L989.85 305.61L987.49 304.09L985.19 302.49L982.94 300.81L980.75 299.05L978.60 297.22L976.51 295.30L974.48 293.31L972.49 291.24L970.56 289.09L968.69 286.85L966.86 284.54L965.09 282.15L963.37 279.67L961.71 277.11L960.10 274.47L958.56 271.79L957.14 269.15L955.78 266.50L954.49 263.83L953.27 261.14L952.12 258.43L951.03 255.70L950.00 252.96L949.04 250.20L948.15 247.43L947.32 244.63L946.55 241.82L945.84 239.00L945.20 236.16L944.61 233.30L944.09 230.42L943.63 227.53L943.22 224.62L942.88 221.70L942.59 218.76L942.36 215.81L942.19 212.84L942.07 209.86L942.01 206.86L942.00 203.85L942.00 200.85L942.00 197.85L942.00 194.85L941.99 191.85L941.99 188.85L941.99 185.85L941.99 182.85L941.99 179.85L941.99 176.85L941.98 173.85L941.98 170.85L941.98 167.85L941.98 164.85L941.98 161.85L941.98 158.85L941.98 155.85L941.98 152.85L941.98 149.85L941.98 146.85L941.98 143.85L941.97 140.85L941.97 137.85L941.97 134.85L941.97 131.85L941.97 128.85L941.97 125.85L941.97 122.85L941.97 119.85L941.97 116.85L941.97 113.85L941.97 110.85L941.97 107.85L941.97 104.85L941.97 101.85L941.97 98.85L941.97 95.85L941.97 92.85L941.97 89.85L941.97 86.85L941.97 83.85L941.97 80.85L941.97 77.85L941.97 74.85L941.97 71.85L941.97 68.87L942.01 65.89L942.01 65.76L941.88 62.35L941.80 61.81L941.08 59.12L940.81 58.47L940.37 57.93L939.79 57.53L937.81 56.53L937.29 56.34L936.74 56.26L932.94 56.17L932.40 56.22L929.74 56.74L929.06 56.97L928.47 57.40L928.04 57.97L926.97 59.87L926.76 60.37L926.66 60.91L926.39 64.59L926.39 64.77L926.39 67.77L926.39 67.78L926.40 70.78L926.40 73.78L926.40 76.77L926.40 79.77L926.40 82.77L926.40 85.77L926.40 88.77L926.40 91.77L926.39 94.77L926.39 97.77L926.39 100.77L926.39 103.77L926.38 106.77L926.38 109.78L926.38 112.78L926.38 115.78L926.38 118.78L926.38 121.78L926.38 124.78L926.38 127.78L926.38 130.78L926.38 133.78L926.38 136.78L926.38 139.78L926.38 142.78L926.38 145.79L926.39 148.79L926.39 151.79L926.40 154.79L926.40 157.79L926.41 160.79L926.42 163.79L926.42 166.79L926.43 169.79L926.44 172.79L926.45 175.79L926.47 178.79L926.48 181.79L926.49 184.78L926.49 187.78L926.49 187.78L926.51 190.78L926.51 190.78L926.53 193.78L926.53 193.79L926.56 196.79L926.56 196.80L926.61 199.80L926.61 199.82L926.69 202.82L926.69 202.84L926.79 205.84L926.79 205.86L926.92 208.86L926.92 208.89L927.08 211.89L927.08 211.92L927.29 214.92L927.29 214.96L927.54 217.96L927.54 218.00L927.83 221.01L927.83 221.05L928.17 224.05L928.18 224.09L928.56 227.08L928.57 227.12L929.00 230.09L929.01 230.14L929.49 233.10L929.50 233.14L930.03 236.08L930.04 236.13L930.62 239.06L930.63 239.10L931.26 242.03L931.27 242.07L931.95 244.98L931.96 245.02L932.70 247.92L932.71 247.96L933.50 250.84L933.51 250.89L934.35 253.76L934.37 253.80L935.26 256.66L935.28 256.70L936.23 259.55L936.24 259.59L937.25 262.43L937.27 262.47L938.35 265.34L938.37 265.39L939.51 268.24L939.54 268.29L940.74 271.09L940.77 271.15L942.03 273.90L942.06 273.96L943.38 276.67L943.41 276.72L944.79 279.38L944.82 279.44L946.27 282.05L946.30 282.11L947.81 284.67L947.84 284.73L949.41 287.25L949.45 287.30L951.08 289.77L951.12 289.82L952.82 292.24L952.86 292.29L954.62 294.65L954.67 294.71L956.49 297.01L956.54 297.07L958.44 299.32L958.48 299.38L960.45 301.57L960.50 301.63L962.53 303.77L962.58 303.82L964.68 305.91L964.73 305.96L966.90 307.99L966.96 308.04L969.20 310.00L969.26 310.05L971.57 311.96L971.63 312.01L974.01 313.86L974.07 313.90L976.53 315.69L976.59 315.73L979.12 317.46L979.18 317.50L981.78 319.16L981.85 319.20L984.53 320.80L984.59 320.84L987.31 322.36L987.37 322.39L990.11 323.82L990.17 323.85L992.92 325.20L992.98 325.23L995.75 326.50L995.81 326.53L998.60 327.72L998.66 327.74L1001.46 328.85L1001.52 328.87L1004.33 329.90L1004.39 329.92L1007.22 330.87L1007.28 330.89L1010.12 331.75L1010.19 331.77L1013.04 332.56L1013.11 332.58L1015.97 333.29L1016.04 333.30L1018.91 333.94L1018.98 333.95L1021.87 334.51L1021.93 334.52L1024.84 335.00L1024.90 335.01L1027.82 335.42L1027.88 335.43L1030.81 335.76L1030.87 335.77L1033.81 336.03L1033.87 336.04L1036.82 336.22L1036.88 336.23L1039.84 336.34L1039.90 336.34L1042.87 336.39L1042.93 336.39L1045.91 336.36L1045.97 336.36L1048.96 336.27L1049.02 336.26L1052.02 336.10L1052.08 336.10L1055.09 335.86L1055.14 335.86L1058.16 335.56L1058.22 335.55L1061.25 335.18L1061.30 335.18L1064.34 334.74L1064.39 334.73L1067.47 334.23L1067.53 334.22L1070.66 333.62L1070.73 333.61L1073.80 332.94L1073.87 332.92L1076.90 332.18L1076.96 332.16L1079.94 331.34L1080.00 331.32L1082.92 330.42L1082.99 330.40L1085.86 329.43L1085.93 329.40L1088.74 328.36L1088.81 328.33L1091.57 327.21L1091.64 327.18L1094.35 325.99L1094.42 325.96L1097.08 324.70L1097.14 324.66L1099.75 323.32L1099.82 323.29L1102.37 321.88L1102.43 321.84L1104.94 320.36L1105.00 320.32L1107.45 318.76L1107.51 318.72L1109.91 317.10L1109.97 317.05L1112.32 315.36L1112.38 315.31L1114.68 313.55L1114.73 313.50L1116.98 311.66L1117.03 311.62L1119.23 309.71L1119.28 309.66L1121.42 307.69L1121.47 307.64L1123.56 305.59L1123.62 305.54L1125.65 303.43L1125.70 303.38L1127.69 301.20L1127.74 301.15L1129.67 298.90L1129.72 298.84L1131.61 296.53L1131.65 296.48L1133.48 294.09L1133.52 294.04L1135.31 291.59L1135.35 291.54L1137.08 289.03L1137.12 288.97L1138.80 286.39L1138.84 286.34L1140.47 283.69L1140.50 283.64L1142.09 280.93L1142.12 280.88L1143.65 278.10L1143.68 278.05L1145.10 275.33L1145.13 275.28L1146.48 272.55L1146.50 272.50L1147.78 269.75L1147.81 269.70L1149.02 266.93L1149.04 266.88L1150.18 264.10L1150.20 264.05L1151.28 261.25L1151.30 261.19L1152.32 258.38L1152.34 258.32L1153.29 255.49L1153.31 255.44L1154.20 252.59L1154.21 252.54L1155.04 249.68L1155.05 249.63L1155.83 246.75L1155.84 246.70L1156.55 243.81L1156.56 243.76L1157.22 240.85L1157.23 240.80L1157.82 237.89L1157.83 237.84L1158.38 234.91L1158.38 234.86L1158.87 231.92L1158.88 231.88L1159.32 228.93L1159.33 228.88L1159.71 225.92L1159.72 225.88L1160.05 222.90L1160.06 222.86L1160.34 219.88L1160.35 219.84L1160.58 216.85L1160.59 216.81L1160.78 213.81L1160.78 213.77L1160.93 210.77L1160.93 210.73L1161.03 207.72L1161.03 207.68L1161.09 204.67L1161.09 204.64L1161.12 201.63L1161.14 198.63L1161.17 195.63L1161.19 192.63L1161.21 189.63L1161.23 186.63L1161.25 183.63L1161.26 180.63L1161.28 177.63L1161.29 174.62L1161.30 171.62L1161.32 168.62L1161.33 165.62L1161.34 162.62L1161.35 159.62L1161.35 156.62L1161.36 153.62L1161.37 150.62L1161.37 147.62L1161.38 144.61L1161.38 141.61L1161.38 138.61L1161.39 135.61L1161.39 132.61L1161.39 129.61L1161.39 126.61L1161.39 123.61L1161.39 120.61L1161.39 117.61L1161.39 114.61L1161.38 111.60L1161.38 108.60L1161.38 105.60L1161.37 102.60L1161.37 99.60L1161.37 96.60L1161.36 93.60L1161.36 90.60L1161.35 87.60L1161.35 84.60L1161.35 81.60L1161.34 78.60L1161.34 75.60L1161.33 72.60L1161.33 69.60L1161.32 66.60L1161.32 63.60L1161.31 60.60L1161.31 57.60L1161.31 54.60L1161.30 51.60L1161.30 48.60L1161.30 45.60L1161.30 42.60L1161.29 39.60L1161.29 36.60L1161.29 33.60L1161.29 30.61L1161.30 27.63L1161.35 24.65L1161.42 21.66L1161.42 21.65L1161.47 19.20Z" fill="#fff"/><path d="M839.14 21.48L839.23 20.85L839.15 20.22L838.92 19.63L838.55 19.11L838.06 18.71L835.48 17.09L835.41 17.05L832.79 15.52L832.74 15.49L830.09 14.02L830.04 13.99L827.37 12.59L827.32 12.56L824.63 11.22L824.58 11.20L821.86 9.92L821.81 9.90L819.07 8.69L819.02 8.67L816.27 7.52L816.21 7.50L813.44 6.42L813.38 6.40L810.59 5.38L810.53 5.36L807.71 4.41L807.66 4.39L804.82 3.50L804.77 3.48L801.91 2.65L801.86 2.64L798.98 1.87L798.93 1.86L796.03 1.16L795.98 1.14L793.07 0.51L793.01 0.49L790.08 -0.08L790.03 -0.09L787.08 -0.61L787.03 -0.62L784.06 -1.07L784.01 -1.08L781.02 -1.47L780.97 -1.47L777.97 -1.80L777.92 -1.81L774.90 -2.08L774.85 -2.08L771.82 -2.29L771.76 -2.29L768.69 -2.43L768.63 -2.43L765.58 -2.50L765.51 -2.50L762.48 -2.48L762.42 -2.48L759.41 -2.39L759.34 -2.38L756.35 -2.21L756.28 -2.20L753.32 -1.95L753.25 -1.94L750.31 -1.60L750.23 -1.59L747.31 -1.17L747.24 -1.15L744.34 -0.64L744.27 -0.63L741.39 -0.03L741.32 -0.02L738.47 0.67L738.39 0.69L735.56 1.46L735.49 1.48L732.68 2.35L732.61 2.37L729.82 3.33L729.75 3.35L726.99 4.40L726.92 4.43L724.18 5.57L724.11 5.60L721.40 6.84L721.32 6.88L718.64 8.21L718.57 8.25L715.90 9.68L715.83 9.72L713.20 11.25L713.13 11.29L710.51 12.92L710.45 12.96L707.86 14.69L707.80 14.74L705.23 16.57L705.16 16.62L702.74 18.49L702.63 18.58L700.37 20.52L700.27 20.61L698.11 22.67L698.02 22.76L695.96 24.94L695.87 25.03L693.92 27.31L693.84 27.40L692.00 29.77L691.93 29.86L690.18 32.33L690.12 32.42L688.49 34.97L688.43 35.06L686.91 37.68L686.85 37.78L685.44 40.47L685.39 40.56L684.09 43.31L684.04 43.41L682.85 46.22L682.81 46.31L681.73 49.17L681.70 49.26L680.73 52.16L680.70 52.25L679.84 55.19L679.82 55.28L679.07 58.24L679.05 58.33L678.43 61.32L678.41 61.41L677.90 64.41L677.89 64.50L677.49 67.51L677.48 67.61L677.21 70.61L677.20 70.71L677.05 73.71L677.05 73.81L677.01 76.79L677.01 76.89L677.10 79.86L677.10 79.96L677.31 82.90L677.32 83.00L677.65 85.91L677.67 86.02L678.12 88.88L678.14 88.99L678.72 91.81L678.75 91.92L679.47 94.76L679.50 94.86L680.39 97.84L680.43 97.94L681.44 100.84L681.47 100.94L682.59 103.77L682.64 103.86L683.86 106.61L683.91 106.71L685.24 109.39L685.28 109.48L686.71 112.09L686.76 112.17L688.29 114.71L688.34 114.80L689.96 117.27L690.01 117.35L691.72 119.76L691.78 119.83L693.57 122.18L693.63 122.25L695.51 124.54L695.56 124.60L697.52 126.83L697.57 126.89L699.60 129.06L699.66 129.12L701.76 131.24L701.81 131.29L703.99 133.35L704.04 133.40L706.28 135.41L706.32 135.46L708.63 137.42L708.67 137.46L711.01 139.37L711.04 139.39L713.39 141.26L713.42 141.28L715.80 143.11L715.82 143.13L718.22 144.93L718.24 144.95L720.66 146.73L720.68 146.74L723.12 148.49L723.14 148.51L725.60 150.23L725.62 150.24L728.09 151.94L728.11 151.95L730.59 153.63L730.61 153.64L733.11 155.30L733.13 155.31L735.64 156.94L735.66 156.95L738.18 158.57L738.20 158.58L740.73 160.18L740.75 160.19L743.29 161.78L743.30 161.78L745.86 163.36L745.87 163.36L748.43 164.93L748.44 164.93L751.01 166.49L751.02 166.49L753.59 168.04L753.60 168.04L756.18 169.58L756.18 169.58L758.76 171.12L758.77 171.12L761.35 172.65L763.94 174.18L766.52 175.71L769.10 177.24L769.11 177.24L771.70 178.76L771.70 178.76L774.29 180.28L776.89 181.79L779.47 183.31L782.06 184.82L784.63 186.35L787.19 187.88L789.74 189.43L792.28 191.00L794.80 192.58L797.30 194.19L799.78 195.82L802.24 197.48L804.67 199.18L807.08 200.91L809.46 202.68L811.80 204.48L814.12 206.35L816.38 208.26L818.57 210.21L820.69 212.23L822.72 214.30L824.67 216.43L826.52 218.63L828.26 220.90L829.90 223.24L831.42 225.66L832.82 228.16L834.09 230.74L835.23 233.42L836.22 236.19L837.05 238.97L837.71 241.77L838.21 244.58L838.57 247.39L838.79 250.23L838.87 253.07L838.83 255.92L838.66 258.79L838.39 261.66L838.00 264.55L837.52 267.44L836.95 270.33L836.29 273.23L835.55 276.11L834.68 278.91L833.69 281.63L832.56 284.28L831.31 286.85L829.93 289.33L828.43 291.74L826.80 294.08L825.06 296.32L823.19 298.49L821.21 300.57L819.10 302.57L816.84 304.52L814.52 306.35L812.15 308.05L809.71 309.64L807.23 311.11L804.69 312.47L802.11 313.72L799.48 314.88L796.80 315.93L794.09 316.88L791.34 317.75L788.55 318.52L785.72 319.21L782.87 319.82L779.99 320.35L777.08 320.81L774.15 321.20L771.20 321.51L768.22 321.77L765.25 321.97L762.29 322.09L759.34 322.16L756.39 322.16L753.46 322.10L750.53 321.98L747.61 321.79L744.70 321.54L741.80 321.22L738.91 320.84L736.02 320.40L733.15 319.90L730.29 319.33L727.44 318.69L724.59 317.99L721.76 317.23L718.94 316.41L716.13 315.52L713.33 314.57L710.54 313.55L707.76 312.47L705.00 311.33L702.26 310.13L699.57 308.83L698.74 308.59L696.10 308.32L695.40 308.34L694.74 308.56L692.33 309.75L691.90 310.02L691.53 310.37L689.43 312.83L689.00 313.57L687.67 317.07L687.52 317.71L687.54 318.36L687.73 318.99L688.07 319.55L689.68 321.51L690.09 321.90L690.57 322.19L693.18 323.39L693.20 323.40L695.94 324.63L696.03 324.67L698.82 325.79L698.83 325.79L701.64 326.90L701.65 326.90L704.53 328.02L704.57 328.04L707.45 329.09L707.49 329.11L710.38 330.11L710.42 330.12L713.31 331.07L713.36 331.08L716.25 331.96L716.30 331.98L719.20 332.80L719.24 332.81L722.15 333.58L722.20 333.59L725.11 334.30L725.16 334.31L728.07 334.95L728.12 334.96L731.04 335.55L731.09 335.56L734.01 336.09L734.06 336.09L736.99 336.56L737.05 336.57L739.98 336.97L740.03 336.98L742.97 337.33L743.02 337.33L745.97 337.62L746.02 337.62L748.97 337.84L749.02 337.85L751.97 338.01L752.02 338.01L754.98 338.11L755.03 338.11L757.99 338.15L758.04 338.15L761.01 338.13L761.06 338.13L764.03 338.04L764.08 338.04L767.06 337.89L767.11 337.89L770.08 337.68L770.14 337.68L773.12 337.40L773.17 337.40L776.15 337.06L776.20 337.05L779.19 336.65L779.24 336.65L782.23 336.18L782.29 336.17L785.28 335.65L785.33 335.64L788.33 335.05L788.38 335.04L791.38 334.38L791.43 334.37L794.45 333.64L794.53 333.62L797.51 332.80L797.59 332.77L800.52 331.86L800.60 331.84L803.46 330.84L803.54 330.81L806.35 329.72L806.43 329.69L809.17 328.51L809.25 328.47L811.93 327.21L812.01 327.16L814.63 325.81L814.71 325.76L817.26 324.31L817.34 324.26L819.83 322.73L819.91 322.67L822.33 321.04L822.41 320.99L824.76 319.26L824.84 319.20L827.13 317.39L827.20 317.33L829.42 315.42L829.49 315.36L831.64 313.36L831.71 313.29L833.79 311.20L833.86 311.12L835.86 308.94L835.93 308.87L837.86 306.59L837.92 306.51L839.79 304.14L839.85 304.06L841.64 301.60L841.69 301.52L843.41 298.96L843.46 298.88L845.10 296.22L845.14 296.14L846.71 293.39L846.76 293.31L848.19 290.55L848.23 290.45L849.52 287.69L849.56 287.59L850.72 284.80L850.76 284.70L851.78 281.88L851.82 281.78L852.72 278.94L852.75 278.84L853.54 275.97L853.56 275.87L854.23 272.98L854.25 272.89L854.82 269.97L854.83 269.88L855.29 266.94L855.30 266.85L855.66 263.89L855.66 263.81L855.92 260.83L855.93 260.75L856.09 257.76L856.10 257.68L856.17 254.67L856.17 254.60L856.16 251.58L856.16 251.49L856.06 248.49L856.05 248.39L855.83 245.41L855.81 245.30L855.46 242.34L855.45 242.22L854.96 239.29L854.94 239.17L854.31 236.26L854.28 236.13L853.51 233.26L853.47 233.13L852.54 230.28L852.49 230.15L851.40 227.35L851.34 227.21L850.08 224.45L850.02 224.32L848.58 221.60L848.53 221.51L846.99 218.87L846.94 218.79L845.32 216.24L845.27 216.16L843.56 213.69L843.51 213.61L841.72 211.21L841.67 211.14L839.81 208.81L839.76 208.75L837.82 206.48L837.77 206.42L835.76 204.23L835.71 204.17L833.64 202.03L833.59 201.98L831.45 199.91L831.40 199.86L829.21 197.84L829.16 197.79L826.91 195.83L826.86 195.79L824.56 193.87L824.51 193.83L822.16 191.96L822.12 191.93L819.72 190.10L819.68 190.07L817.23 188.29L817.20 188.26L814.75 186.53L814.72 186.51L812.25 184.81L812.22 184.79L809.73 183.12L809.71 183.11L807.19 181.46L807.17 181.45L804.65 179.83L804.63 179.82L802.09 178.23L802.07 178.22L799.52 176.64L799.51 176.63L796.95 175.07L796.93 175.06L794.36 173.51L794.36 173.51L791.78 171.97L791.77 171.97L789.19 170.43L789.19 170.43L786.61 168.90L784.03 167.37L781.44 165.84L781.43 165.83L778.85 164.31L778.84 164.31L776.25 162.80L776.25 162.79L773.65 161.28L771.05 159.77L768.46 158.27L765.87 156.76L763.28 155.24L760.70 153.73L758.12 152.20L755.56 150.67L753.00 149.13L750.46 147.57L747.92 146.00L745.40 144.41L742.90 142.80L740.41 141.17L737.93 139.52L735.48 137.85L733.04 136.14L730.63 134.41L728.24 132.65L725.87 130.85L723.53 129.02L721.21 127.15L718.92 125.22L716.70 123.24L714.57 121.23L712.51 119.17L710.54 117.06L708.65 114.90L706.86 112.68L705.16 110.41L703.56 108.08L702.06 105.68L700.67 103.22L699.39 100.68L698.22 98.08L697.17 95.39L696.23 92.62L695.42 89.76L694.74 86.81L694.24 84.02L693.89 81.30L693.67 78.55L693.59 75.77L693.63 72.96L693.81 70.15L694.13 67.33L694.57 64.51L695.15 61.71L695.87 58.93L696.71 56.17L697.69 53.46L698.80 50.79L700.05 48.18L701.42 45.63L702.93 43.15L704.57 40.76L706.34 38.44L708.24 36.22L710.28 34.10L712.44 32.10L714.74 30.20L717.18 28.43L719.71 26.78L722.27 25.23L724.86 23.79L727.48 22.45L730.11 21.21L732.77 20.08L735.45 19.04L738.16 18.11L740.89 17.27L743.64 16.53L746.42 15.87L749.22 15.32L752.04 14.85L754.89 14.47L757.76 14.19L760.66 13.98L763.58 13.87L766.53 13.84L769.50 13.89L772.49 14.02L775.51 14.24L778.54 14.53L781.51 14.89L784.46 15.31L787.38 15.80L790.27 16.36L793.14 16.98L795.99 17.67L798.81 18.43L801.60 19.26L804.38 20.15L807.13 21.11L809.85 22.13L812.56 23.23L815.25 24.39L817.91 25.62L820.55 26.91L823.18 28.28L825.81 29.72L825.94 29.79L828.90 31.20L829.55 31.40L830.24 31.42L832.79 31.15L833.41 31.00L833.97 30.70L834.43 30.27L836.39 27.95L836.66 27.57L838.10 25.03L838.33 24.45L839.14 21.48Z" fill="#fff"/><path d="M-2.33 234.84L-2.49 235.49L-2.46 236.15L-2.27 236.79L-1.91 237.35L-1.42 237.79L-0.82 238.09L-0.17 238.23L4.72 238.56L4.84 238.57L8.27 238.64L8.81 238.60L10.99 238.16L11.55 237.98L12.04 237.68L13.41 236.62L13.79 236.25L14.08 235.81L15.04 234.00L15.18 233.68L16.15 231.00L17.42 227.62L18.52 224.85L18.52 224.85L19.62 222.06L19.62 222.05L20.72 219.26L21.82 216.47L22.91 213.67L24.01 210.88L25.10 208.08L26.18 205.28L27.27 202.48L28.35 199.68L29.44 196.89L30.52 194.09L31.60 191.29L32.68 188.49L33.77 185.69L34.85 182.89L35.93 180.09L37.01 177.29L38.09 174.50L39.17 171.70L40.26 168.90L41.34 166.10L42.43 163.30L43.51 160.51L44.60 157.71L45.68 154.91L46.76 152.11L47.85 149.31L48.93 146.52L50.02 143.72L51.10 140.92L52.19 138.12L53.27 135.33L54.36 132.53L55.44 129.73L56.52 126.93L57.61 124.14L58.69 121.34L59.78 118.54L60.86 115.74L61.95 112.95L63.03 110.15L64.12 107.35L65.20 104.56L66.29 101.76L67.37 98.96L68.46 96.17L69.54 93.37L70.63 90.57L71.71 87.78L72.80 84.98L73.88 82.18L74.97 79.39L76.06 76.59L77.14 73.79L78.23 71.00L79.31 68.20L80.40 65.40L81.49 62.61L82.57 59.81L83.66 57.01L84.74 54.22L85.83 51.42L86.92 48.62L88.00 45.83L89.09 43.03L90.18 40.23L91.27 37.44L92.35 34.64L93.44 31.84L94.53 29.05L95.62 26.25L96.70 23.46L96.76 23.31L97.16 22.03L97.71 23.29L98.83 26.02L99.92 28.80L101.01 31.59L102.10 34.39L103.20 37.18L104.29 39.97L105.38 42.77L106.47 45.56L107.56 48.36L108.65 51.16L109.74 53.95L110.83 56.75L111.92 59.54L113.01 62.34L114.10 65.13L115.19 67.93L116.28 70.73L117.37 73.52L118.45 76.32L119.54 79.11L120.63 81.91L121.72 84.70L122.81 87.50L123.90 90.30L124.99 93.09L126.08 95.89L127.17 98.68L128.26 101.48L129.35 104.27L130.43 107.07L131.52 109.86L132.61 112.66L133.71 115.45L134.80 118.25L135.89 121.04L136.98 123.84L138.07 126.63L139.16 129.43L140.25 132.22L141.34 135.02L142.44 137.81L143.53 140.61L144.62 143.40L145.71 146.20L146.80 148.99L147.89 151.79L148.98 154.58L150.07 157.38L151.17 160.17L152.26 162.97L153.35 165.76L154.44 168.56L155.53 171.36L156.62 174.15L157.71 176.95L158.80 179.74L159.90 182.54L160.99 185.33L162.08 188.12L163.17 190.92L164.26 193.71L165.35 196.51L166.45 199.30L167.54 202.10L168.63 204.89L169.72 207.69L170.81 210.48L171.90 213.28L173.00 216.07L174.09 218.87L175.18 221.66L176.27 224.46L177.36 227.25L178.45 230.05L179.55 232.84L180.64 235.63L181.73 238.43L182.82 241.22L183.92 244.02L185.01 246.81L186.10 249.61L187.19 252.40L188.28 255.19L189.38 257.99L190.47 260.78L191.56 263.58L192.65 266.37L193.75 269.16L194.84 271.96L195.93 274.75L197.02 277.55L198.12 280.34L199.21 283.13L200.30 285.93L201.39 288.72L202.49 291.52L203.59 294.31L204.69 297.10L205.79 299.89L206.89 302.69L207.99 305.48L209.09 308.27L210.20 311.06L211.30 313.85L212.41 316.64L213.51 319.43L214.62 322.22L215.72 325.01L216.83 327.80L216.83 327.82L218.22 331.24L218.37 331.55L219.72 333.90L220.12 334.43L220.64 334.83L222.39 335.84L222.92 336.06L223.49 336.16L226.41 336.34L226.66 336.34L230.24 336.18L230.98 336.04L231.65 335.67L233.87 333.96L234.36 333.48L234.69 332.88L234.84 332.21L234.81 331.52L234.28 328.65L234.14 328.17L233.02 325.41L231.93 322.63L230.84 319.84L229.75 317.05L228.66 314.25L227.57 311.46L226.47 308.67L225.38 305.87L224.29 303.08L223.20 300.29L222.11 297.49L221.02 294.70L219.92 291.91L218.83 289.11L217.74 286.32L216.65 283.52L215.56 280.73L214.46 277.93L213.37 275.14L212.28 272.35L211.19 269.55L210.10 266.76L209.00 263.96L207.91 261.17L206.82 258.37L205.73 255.58L204.63 252.78L203.54 249.99L202.45 247.19L201.35 244.40L200.26 241.60L199.17 238.81L198.08 236.01L196.98 233.22L195.89 230.42L194.80 227.63L193.70 224.83L192.61 222.04L191.52 219.24L190.42 216.45L189.33 213.65L188.24 210.86L187.14 208.06L186.05 205.27L184.95 202.47L183.86 199.68L182.77 196.89L181.67 194.09L180.58 191.30L179.49 188.50L178.39 185.71L177.30 182.92L176.21 180.12L175.11 177.33L174.02 174.53L172.92 171.74L171.83 168.95L170.74 166.15L169.64 163.36L168.55 160.56L167.46 157.77L166.36 154.98L165.27 152.18L164.18 149.39L163.08 146.59L161.99 143.80L160.89 141.01L159.80 138.21L158.71 135.42L157.61 132.63L156.52 129.83L155.43 127.04L154.33 124.24L153.24 121.45L152.15 118.66L151.05 115.86L149.96 113.07L148.87 110.27L147.77 107.48L146.68 104.69L145.58 101.89L144.49 99.10L143.40 96.30L142.30 93.51L141.21 90.72L140.12 87.92L139.02 85.13L137.93 82.33L136.84 79.54L135.74 76.75L134.65 73.95L133.56 71.16L132.46 68.36L131.37 65.57L130.27 62.78L129.18 59.98L128.08 57.19L126.99 54.39L125.89 51.60L124.79 48.81L123.70 46.01L122.60 43.22L121.51 40.43L120.41 37.64L119.31 34.85L118.21 32.05L117.11 29.26L116.01 26.47L114.91 23.68L113.81 20.89L112.70 18.10L111.60 15.31L110.49 12.52L109.38 9.74L108.33 6.99L108.32 6.97L107.25 4.25L106.99 3.76L106.63 3.34L104.47 1.31L103.97 0.94L103.40 0.71L100.17 -0.15L99.61 -0.23L96.65 -0.34L95.99 -0.27L93.33 0.35L92.66 0.62L90.31 1.96L89.76 2.38L87.75 4.43L87.39 4.89L85.74 7.64L85.56 7.99L84.36 10.96L84.34 11.00L83.26 13.79L82.17 16.59L81.09 19.39L80.00 22.19L78.92 24.98L77.83 27.78L76.75 30.58L75.66 33.38L74.58 36.17L73.49 38.97L72.41 41.77L71.32 44.56L70.24 47.36L69.15 50.16L68.07 52.96L66.98 55.75L65.90 58.55L64.81 61.35L63.73 64.15L62.64 66.94L61.56 69.74L60.47 72.54L59.39 75.33L58.30 78.13L57.22 80.93L56.13 83.73L55.05 86.52L53.96 89.32L52.88 92.12L51.79 94.92L50.71 97.71L49.62 100.51L48.54 103.31L47.45 106.11L46.37 108.90L45.28 111.70L44.20 114.50L43.11 117.29L42.03 120.09L40.94 122.89L39.86 125.69L38.77 128.48L37.69 131.28L36.60 134.08L35.52 136.88L34.43 139.67L33.35 142.47L32.26 145.27L31.18 148.06L30.09 150.86L29.01 153.66L27.92 156.46L26.84 159.25L25.75 162.05L24.67 164.85L23.58 167.65L22.50 170.44L21.41 173.24L20.33 176.04L19.24 178.84L18.16 181.63L17.07 184.43L15.99 187.23L14.90 190.02L13.82 192.82L12.73 195.62L11.65 198.42L10.58 201.18L9.52 203.93L8.45 206.69L7.39 209.45L6.33 212.22L5.26 215.00L4.19 217.79L3.12 220.59L2.04 223.41L0.96 226.24L-0.13 229.09L-1.23 231.95L-2.33 234.84Z" fill="#fff"/><path d="M492.27 193.96L493.81 193.80L493.84 193.80L496.93 193.45L496.96 193.45L500.01 193.06L500.05 193.06L503.07 192.63L503.11 192.63L506.10 192.16L506.14 192.15L509.10 191.64L509.15 191.63L512.08 191.06L512.13 191.05L515.02 190.43L515.08 190.41L517.95 189.73L518.01 189.72L520.85 188.97L520.91 188.95L523.73 188.14L523.79 188.12L526.58 187.23L526.65 187.21L529.41 186.25L529.48 186.23L532.22 185.19L532.29 185.16L535.04 184.02L535.10 184.00L537.90 182.75L537.96 182.73L540.71 181.42L540.77 181.39L543.47 180.03L543.53 179.99L546.17 178.56L546.24 178.52L548.82 177.02L548.89 176.98L551.41 175.40L551.48 175.35L553.93 173.70L554.00 173.65L556.39 171.91L556.46 171.86L558.77 170.04L558.85 169.98L561.08 168.07L561.16 168.00L563.32 166.01L563.39 165.94L565.47 163.85L565.54 163.77L567.53 161.58L567.61 161.50L569.51 159.21L569.58 159.13L571.39 156.74L571.46 156.64L573.18 154.15L573.25 154.05L574.87 151.44L574.93 151.34L576.45 148.62L576.50 148.52L577.92 145.68L577.96 145.60L579.28 142.71L579.30 142.66L580.53 139.77L580.56 139.71L581.70 136.82L581.72 136.75L582.78 133.86L582.80 133.80L583.78 130.90L583.80 130.84L584.69 127.94L584.70 127.87L585.51 124.97L585.52 124.90L586.24 122.00L586.26 121.93L586.89 119.03L586.91 118.96L587.46 116.05L587.47 115.98L587.94 113.07L587.95 113.00L588.33 110.09L588.34 110.02L588.64 107.10L588.64 107.03L588.86 104.12L588.86 104.05L589.00 101.13L589.00 101.06L589.06 98.14L589.06 98.07L589.03 95.15L589.03 95.08L588.91 92.15L588.91 92.08L588.72 89.16L588.71 89.09L588.44 86.16L588.43 86.09L588.08 83.17L588.07 83.10L587.64 80.17L587.63 80.10L587.12 77.17L587.10 77.11L586.51 74.17L586.50 74.11L585.83 71.18L585.81 71.12L585.06 68.18L585.04 68.12L584.21 65.18L584.20 65.12L583.29 62.19L583.27 62.13L582.28 59.19L582.26 59.13L581.20 56.19L581.18 56.13L580.04 53.22L580.00 53.13L578.77 50.30L578.73 50.21L577.41 47.46L577.37 47.37L575.95 44.70L575.90 44.61L574.40 42.02L574.34 41.94L572.74 39.43L572.69 39.34L570.99 36.92L570.93 36.83L569.15 34.49L569.09 34.41L567.22 32.15L567.15 32.07L565.19 29.89L565.12 29.81L563.06 27.71L562.99 27.64L560.85 25.62L560.78 25.55L558.55 23.61L558.47 23.54L556.16 21.68L556.08 21.62L553.68 19.84L553.60 19.79L551.11 18.08L551.03 18.03L548.46 16.41L548.38 16.36L545.72 14.82L545.65 14.78L542.90 13.31L542.83 13.27L540.03 11.90L539.96 11.87L537.18 10.60L537.12 10.58L534.32 9.39L534.26 9.37L531.44 8.27L531.37 8.25L528.53 7.23L528.47 7.21L525.61 6.27L525.55 6.25L522.67 5.40L522.61 5.38L519.72 4.60L519.66 4.59L516.75 3.89L516.69 3.87L513.77 3.25L513.70 3.24L510.77 2.69L510.71 2.68L507.76 2.20L507.70 2.19L504.73 1.79L504.67 1.78L501.70 1.45L501.64 1.44L498.66 1.18L498.60 1.18L495.60 0.98L495.55 0.98L492.54 0.85L492.49 0.85L489.48 0.79L489.47 0.79L486.46 0.74L486.46 0.74L483.46 0.69L483.45 0.69L480.45 0.65L480.44 0.65L477.44 0.62L477.44 0.62L474.43 0.59L474.43 0.59L471.42 0.57L471.42 0.57L468.41 0.55L468.41 0.55L465.41 0.53L465.40 0.53L462.40 0.52L462.39 0.52L459.39 0.51L459.39 0.51L456.38 0.50L453.37 0.50L450.36 0.50L447.36 0.50L444.35 0.50L441.34 0.50L438.33 0.51L435.32 0.52L432.32 0.53L429.31 0.54L426.30 0.55L423.29 0.56L420.29 0.57L417.28 0.58L414.28 0.59L411.27 0.60L408.26 0.60L405.26 0.61L402.25 0.62L399.25 0.62L396.24 0.62L396.22 0.62L393.22 0.64L392.92 0.67L389.98 1.05L389.33 1.23L388.75 1.58L388.29 2.06L386.47 4.57L386.16 5.14L386.01 5.77L385.68 8.83L385.69 9.43L385.85 10.02L386.85 12.53L387.17 13.11L387.64 13.58L389.82 15.28L390.32 15.58L390.87 15.76L394.02 16.37L394.51 16.42L397.51 16.42L397.52 16.42L400.52 16.41L403.52 16.41L406.53 16.41L409.53 16.40L412.54 16.40L415.54 16.40L418.55 16.40L421.55 16.40L424.56 16.39L427.57 16.39L430.57 16.39L433.58 16.39L436.59 16.39L439.59 16.38L442.60 16.38L445.60 16.38L448.61 16.38L451.62 16.38L454.62 16.38L457.63 16.38L460.63 16.38L463.64 16.38L466.64 16.39L469.65 16.39L472.65 16.39L475.66 16.40L478.66 16.40L481.66 16.41L484.63 16.44L487.59 16.50L490.55 16.61L493.50 16.76L496.46 16.97L499.41 17.23L502.37 17.55L505.34 17.94L508.28 18.40L511.18 18.94L514.05 19.56L516.88 20.25L519.69 21.03L522.46 21.89L525.20 22.83L527.91 23.86L530.59 24.97L533.24 26.17L535.86 27.46L538.46 28.85L541.01 30.32L543.56 31.92L546.01 33.62L548.33 35.40L550.54 37.27L552.63 39.23L554.60 41.27L556.45 43.40L558.20 45.61L559.83 47.90L561.36 50.28L562.78 52.73L564.10 55.27L565.31 57.90L566.41 60.60L567.42 63.38L568.32 66.25L569.12 69.10L569.83 71.95L570.45 74.82L570.99 77.69L571.45 80.56L571.83 83.45L572.12 86.34L572.34 89.24L572.48 92.15L572.54 95.07L572.52 98.00L572.43 100.94L572.27 103.90L572.03 106.87L571.72 109.85L571.34 112.86L570.85 115.84L570.25 118.78L569.54 121.67L568.73 124.51L567.82 127.30L566.81 130.04L565.69 132.72L564.48 135.35L563.18 137.91L561.77 140.41L560.28 142.85L558.69 145.22L557.02 147.52L555.26 149.75L553.41 151.90L551.48 153.98L549.46 155.98L547.37 157.90L545.19 159.74L542.94 161.49L540.61 163.16L538.21 164.74L535.74 166.22L533.19 167.61L530.57 168.91L527.89 170.10L525.14 171.20L522.33 172.19L519.45 173.08L516.51 173.86L513.62 174.57L510.72 175.23L507.82 175.84L504.91 176.39L502.01 176.89L499.10 177.31L496.20 177.67L493.28 177.96L490.36 178.16L487.43 178.29L484.50 178.33L481.52 178.28L478.50 178.22L478.02 178.26L475.17 178.76L474.61 178.93L474.09 179.23L471.79 180.99L471.33 181.45L471.01 182.00L469.74 184.98L469.59 185.45L469.54 185.94L469.52 188.75L469.68 189.66L470.71 192.34L471.01 192.92L472.89 195.51L473.00 195.66L474.93 197.95L476.82 200.26L478.70 202.58L480.56 204.92L482.43 207.27L484.29 209.63L484.29 209.63L486.16 211.99L486.17 211.99L488.04 214.34L488.05 214.35L489.95 216.69L489.96 216.70L491.87 219.03L491.87 219.03L493.78 221.35L495.70 223.66L497.61 225.98L499.53 228.30L501.45 230.61L503.36 232.93L505.28 235.24L507.20 237.56L509.12 239.87L511.04 242.19L512.96 244.50L514.88 246.82L516.79 249.13L518.71 251.44L520.63 253.76L522.54 256.07L524.46 258.39L526.37 260.71L528.29 263.02L530.20 265.34L532.11 267.66L534.02 269.98L535.93 272.30L537.84 274.62L539.75 276.95L541.67 279.27L543.58 281.59L545.50 283.91L547.41 286.23L549.32 288.55L551.24 290.87L553.15 293.18L555.06 295.50L556.97 297.82L558.87 300.14L560.77 302.47L562.67 304.79L564.56 307.12L566.45 309.45L568.34 311.78L570.22 314.12L572.09 316.46L573.96 318.81L575.82 321.16L577.67 323.51L579.52 325.87L581.36 328.24L583.19 330.62L583.32 330.77L585.58 333.27L585.96 333.61L588.30 335.33L588.81 335.61L591.27 336.65L591.81 336.81L594.44 337.27L594.88 337.31L597.73 337.31L598.01 337.29L601.13 336.92L601.55 336.84L604.31 336.02L604.94 335.72L605.47 335.27L605.86 334.68L606.06 334.02L606.07 333.32L605.89 332.64L605.53 332.04L603.63 329.70L601.72 327.36L599.82 325.02L597.92 322.68L596.01 320.34L594.11 318.01L592.20 315.67L590.30 313.34L588.40 311.01L586.50 308.68L584.59 306.36L582.69 304.03L580.79 301.71L578.89 299.38L576.99 297.06L575.08 294.74L573.18 292.42L571.28 290.10L569.38 287.79L567.48 285.47L565.57 283.15L563.67 280.84L561.77 278.52L559.87 276.21L557.97 273.89L556.06 271.58L554.16 269.27L552.26 266.95L550.36 264.64L548.45 262.33L546.55 260.02L544.65 257.70L542.74 255.39L540.84 253.08L538.93 250.76L537.03 248.45L535.13 246.13L533.22 243.82L531.31 241.50L529.41 239.19L527.50 236.87L525.59 234.55L523.69 232.24L521.78 229.92L519.87 227.60L517.96 225.27L516.05 222.95L514.14 220.63L512.23 218.30L510.32 215.98L508.41 213.65L506.49 211.32L504.58 208.99L502.67 206.65L500.75 204.32L498.84 201.98L496.92 199.64L495.00 197.30L493.09 194.96L492.27 193.96Z" fill="#fff"/><path d="M1156.48 18.61L1156.54 19.15L1156.72 19.67L1157.00 20.14L1158.80 22.46L1160.60 24.85L1162.41 27.25L1164.22 29.65L1166.03 32.05L1167.83 34.45L1169.64 36.86L1171.45 39.26L1173.26 41.66L1175.07 44.06L1176.88 46.46L1178.69 48.86L1180.49 51.26L1182.30 53.66L1184.11 56.07L1185.92 58.47L1187.73 60.87L1189.54 63.27L1191.35 65.67L1193.16 68.07L1194.97 70.47L1196.78 72.87L1198.59 75.27L1200.40 77.67L1202.21 80.07L1204.02 82.47L1205.83 84.88L1207.63 87.28L1209.44 89.68L1211.25 92.08L1213.06 94.48L1214.87 96.88L1216.68 99.28L1218.49 101.68L1220.30 104.08L1222.10 106.49L1223.91 108.89L1225.72 111.29L1227.53 113.69L1229.33 116.09L1231.14 118.49L1232.95 120.89L1234.76 123.30L1236.56 125.70L1238.37 128.10L1240.18 130.50L1241.98 132.91L1243.79 135.31L1245.59 137.71L1247.40 140.11L1249.20 142.52L1251.01 144.92L1252.81 147.32L1254.62 149.73L1256.42 152.13L1258.22 154.54L1260.03 156.94L1261.83 159.35L1263.64 161.75L1265.44 164.16L1267.24 166.56L1269.05 168.97L1270.85 171.37L1272.65 173.78L1274.46 176.18L1276.26 178.59L1278.06 180.99L1279.86 183.40L1281.67 185.81L1283.47 188.21L1285.27 190.62L1287.07 193.02L1288.88 195.43L1290.68 197.84L1292.48 200.24L1294.28 202.65L1296.09 205.05L1297.89 207.46L1299.69 209.87L1301.49 212.27L1303.29 214.68L1305.10 217.08L1306.90 219.49L1308.70 221.90L1310.50 224.30L1312.30 226.71L1314.11 229.12L1315.91 231.52L1317.71 233.93L1319.51 236.34L1321.31 238.74L1323.11 241.15L1324.91 243.55L1326.72 245.96L1328.52 248.37L1330.32 250.77L1332.12 253.18L1333.92 255.59L1335.72 257.99L1337.52 260.40L1339.32 262.81L1341.13 265.21L1342.93 267.62L1344.73 270.03L1346.53 272.43L1348.33 274.84L1350.13 277.25L1351.93 279.65L1353.73 282.06L1355.53 284.47L1357.34 286.87L1359.14 289.28L1360.94 291.69L1362.74 294.09L1364.54 296.50L1366.34 298.91L1368.14 301.31L1369.94 303.72L1371.74 306.13L1373.55 308.53L1375.35 310.94L1377.15 313.35L1378.95 315.75L1380.75 318.16L1382.55 320.56L1384.35 322.97L1386.15 325.38L1387.95 327.78L1389.76 330.19L1389.76 330.20L1391.57 332.59L1391.90 332.95L1394.10 334.92L1394.64 335.28L1395.26 335.50L1395.91 335.55L1396.55 335.43L1397.14 335.14L1397.63 334.72L1399.56 332.56L1399.88 332.11L1400.09 331.61L1401.10 328.21L1401.19 327.85L1401.63 324.69L1401.65 324.24L1401.53 321.36L1401.45 320.82L1400.76 318.23L1400.53 317.67L1399.28 315.40L1398.92 314.89L1397.11 312.96L1396.99 312.83L1395.13 311.11L1393.57 308.87L1393.52 308.80L1391.71 306.39L1389.91 303.98L1388.11 301.58L1386.31 299.17L1384.50 296.77L1382.70 294.36L1380.90 291.96L1379.10 289.55L1377.29 287.14L1375.49 284.74L1373.69 282.33L1371.89 279.93L1370.09 277.52L1368.28 275.11L1366.48 272.71L1364.68 270.30L1362.88 267.90L1361.08 265.49L1359.27 263.08L1357.47 260.68L1355.67 258.27L1353.87 255.87L1352.07 253.46L1350.26 251.05L1348.46 248.65L1346.66 246.24L1344.86 243.83L1343.06 241.43L1341.26 239.02L1339.45 236.62L1337.65 234.21L1335.85 231.80L1334.05 229.40L1332.25 226.99L1330.44 224.58L1328.64 222.18L1326.84 219.77L1325.04 217.37L1323.24 214.96L1321.43 212.55L1319.63 210.15L1317.83 207.74L1316.03 205.34L1314.23 202.93L1312.42 200.52L1310.62 198.12L1308.82 195.71L1307.02 193.31L1305.21 190.90L1303.41 188.49L1301.61 186.09L1299.81 183.68L1298.00 181.28L1296.20 178.87L1294.40 176.47L1292.59 174.06L1290.79 171.65L1288.99 169.25L1287.18 166.84L1285.38 164.44L1283.58 162.03L1281.77 159.63L1279.97 157.22L1278.17 154.82L1276.36 152.41L1274.56 150.01L1272.76 147.60L1270.95 145.20L1269.15 142.79L1267.35 140.38L1265.54 137.98L1263.74 135.57L1261.94 133.17L1260.14 130.76L1258.33 128.36L1256.53 125.95L1254.73 123.55L1252.92 121.14L1251.12 118.74L1249.31 116.33L1247.51 113.93L1245.71 111.52L1243.90 109.12L1242.10 106.71L1240.30 104.31L1238.49 101.90L1236.69 99.50L1234.88 97.09L1233.08 94.69L1231.28 92.29L1229.47 89.88L1227.67 87.48L1225.86 85.07L1224.06 82.67L1222.25 80.26L1220.45 77.86L1218.65 75.46L1216.84 73.05L1215.04 70.65L1213.23 68.24L1211.43 65.84L1209.62 63.44L1207.81 61.03L1206.01 58.63L1204.20 56.23L1202.40 53.82L1200.59 51.42L1198.79 49.02L1196.98 46.61L1195.17 44.21L1193.37 41.81L1191.56 39.40L1189.75 37.00L1187.95 34.60L1186.14 32.20L1184.33 29.79L1182.53 27.39L1180.72 24.99L1178.91 22.59L1177.10 20.19L1175.29 17.78L1173.49 15.38L1171.68 12.98L1169.90 10.62L1168.28 8.27L1166.71 5.79L1166.58 5.61L1164.78 3.25L1164.38 2.84L1162.08 0.93L1161.47 0.56L1160.79 0.38L1160.08 0.39L1159.41 0.60L1157.90 1.32L1157.32 1.71L1156.87 2.24L1156.58 2.88L1156.48 3.57L1156.48 18.61Z" fill="#fff"/><path d="M1394.11 333.45L1394.21 334.12L1394.49 334.75L1394.92 335.28L1395.49 335.66L1396.13 335.88L1396.82 335.92L1400.20 335.64L1400.88 335.48L1403.54 334.47L1404.36 333.95L1406.25 332.16L1406.57 331.78L1406.82 331.35L1407.94 328.79L1408.13 328.05L1408.49 324.76L1408.50 324.49L1408.50 65.95L1408.50 62.94L1408.50 62.91L1408.46 59.91L1408.46 59.88L1408.40 56.74L1408.29 56.06L1408.01 55.45L1406.57 53.20L1406.14 52.68L1405.59 52.31L1404.95 52.09L1401.70 51.44L1401.13 51.39L1397.85 51.51L1397.21 51.61L1396.62 51.88L1394.81 53.00L1394.34 53.37L1393.97 53.84L1393.73 54.39L1392.94 56.94L1392.84 57.56L1392.67 61.14L1392.67 61.27L1392.68 64.27L1392.68 67.28L1392.68 70.29L1392.68 73.30L1392.68 76.30L1392.68 79.31L1392.68 82.32L1392.68 85.32L1392.68 88.33L1392.68 91.33L1392.68 94.34L1392.68 97.35L1392.68 100.35L1392.68 103.36L1392.68 106.37L1392.68 109.37L1392.68 112.38L1392.68 115.39L1392.68 118.39L1392.68 121.40L1392.68 124.40L1392.68 127.41L1392.68 130.42L1392.68 133.42L1392.68 136.43L1392.68 139.44L1392.68 142.44L1392.68 145.45L1392.68 148.45L1392.68 151.46L1392.68 154.47L1392.68 157.47L1392.68 160.48L1392.68 163.49L1392.68 166.49L1392.68 169.50L1392.67 172.50L1392.67 175.51L1392.67 178.52L1392.67 181.52L1392.67 184.53L1392.67 187.53L1392.67 190.54L1392.67 193.55L1392.67 196.55L1392.67 199.56L1392.67 202.56L1392.67 205.57L1392.67 208.58L1392.67 211.58L1392.67 214.59L1392.66 217.59L1392.66 220.60L1392.66 223.61L1392.66 226.61L1392.66 229.62L1392.66 232.63L1392.66 235.63L1392.66 238.64L1392.66 241.64L1392.65 244.65L1392.65 247.66L1392.65 250.66L1392.65 253.67L1392.65 256.68L1392.65 259.68L1392.65 262.69L1392.64 265.69L1392.64 268.70L1392.64 271.71L1392.64 274.71L1392.64 277.72L1392.64 280.73L1392.63 283.73L1392.63 286.74L1392.63 289.75L1392.63 292.75L1392.63 295.76L1392.62 298.77L1392.62 301.77L1392.62 304.78L1392.63 304.95L1392.82 307.75L1392.74 309.98L1391.58 312.17L1391.34 312.83L1391.30 313.52L1391.44 314.21L1391.77 314.82L1393.25 316.85L1394.05 318.79L1394.08 321.39L1394.03 324.36L1394.03 324.41L1394.05 327.42L1394.05 327.44L1394.09 330.44L1394.11 333.45Z" fill="#fff"/><path d="M289.99 229.89L289.99 229.91L290.01 233.04L290.07 233.56L290.23 234.06L291.34 236.50L291.71 237.09L292.23 237.55L292.86 237.85L295.77 238.78L296.55 238.90L300.10 238.88L300.63 238.83L301.13 238.66L303.14 237.74L303.68 237.41L304.12 236.95L304.43 236.40L305.34 234.12L305.51 233.35L305.74 229.65L305.75 229.50L305.75 13.28L305.77 10.27L305.77 10.17L305.66 6.99L305.56 6.37L304.74 3.56L304.45 2.92L303.99 2.38L302.15 0.78L301.62 0.42L301.02 0.21L297.94 -0.43L297.08 -0.46L293.50 0.05L292.78 0.26L292.16 0.68L291.69 1.27L290.43 3.45L290.18 4.01L290.09 4.62L289.99 7.58L289.99 7.66L289.99 10.67L289.99 229.89Z" fill="#fff"/></mask>
    <linearGradient id="asun-sheen" gradientUnits="userSpaceOnUse" x1="0" y1="0" x2="820" y2="287">
      <stop offset="0" stop-color="#fff" stop-opacity="0"/><stop offset="0.10" stop-color="#fff" stop-opacity="0"/><stop offset="0.24" stop-color="#fff" stop-opacity="0.30"/><stop offset="0.38" stop-color="#fff" stop-opacity="0.62"/><stop offset="0.5" stop-color="#fff" stop-opacity="1"/><stop offset="0.62" stop-color="#fff" stop-opacity="0.62"/><stop offset="0.76" stop-color="#fff" stop-opacity="0.30"/><stop offset="0.90" stop-color="#fff" stop-opacity="0"/><stop offset="1" stop-color="#fff" stop-opacity="0"/>
      <animateTransform attributeName="gradientTransform" type="translate" values="-880 0; 1460 0; 1460 0" keyTimes="0;0.68;1" dur="3.4s" repeatCount="indefinite"/>
    </linearGradient>
  </defs>
  <path d="M1161.47 19.20L1162.60 16.84L1162.76 16.41L1163.52 13.55L1163.60 13.05L1163.77 10.19L1163.75 9.71L1163.35 6.86L1163.26 6.45L1162.36 3.59L1161.93 2.78L1160.10 0.49L1159.68 0.08L1159.17 -0.23L1158.60 -0.41L1158.00 -0.44L1154.69 -0.24L1154.03 -0.11L1151.38 0.80L1150.61 1.23L1148.62 2.85L1148.03 3.56L1146.70 5.89L1146.43 6.60L1145.77 9.65L1145.71 10.11L1145.63 13.41L1145.63 13.47L1145.63 16.47L1145.63 19.47L1145.63 22.47L1145.63 25.47L1145.63 28.47L1145.63 31.47L1145.63 34.47L1145.62 37.47L1145.62 40.47L1145.62 43.47L1145.62 46.47L1145.62 49.47L1145.61 52.47L1145.61 55.47L1145.61 58.47L1145.61 61.47L1145.61 64.47L1145.60 67.47L1145.60 70.47L1145.60 73.47L1145.60 76.47L1145.59 79.47L1145.59 82.47L1145.59 85.47L1145.59 88.47L1145.59 91.47L1145.58 94.47L1145.58 97.47L1145.58 100.47L1145.58 103.47L1145.58 106.47L1145.58 109.47L1145.58 112.47L1145.57 115.47L1145.57 118.47L1145.57 121.47L1145.57 124.48L1145.57 127.48L1145.57 130.48L1145.57 133.48L1145.58 136.48L1145.58 139.48L1145.58 142.48L1145.58 145.48L1145.58 148.48L1145.59 151.48L1145.59 154.48L1145.59 157.48L1145.60 160.48L1145.60 163.48L1145.60 166.48L1145.61 169.48L1145.61 172.48L1145.62 175.48L1145.63 178.48L1145.63 181.48L1145.64 184.48L1145.65 187.49L1145.66 190.49L1145.67 193.49L1145.68 196.49L1145.69 199.48L1145.69 202.50L1145.64 205.49L1145.55 208.48L1145.42 211.45L1145.23 214.41L1144.99 217.36L1144.70 220.30L1144.36 223.22L1143.97 226.13L1143.53 229.03L1143.03 231.92L1142.48 234.79L1141.87 237.65L1141.20 240.50L1140.48 243.34L1139.70 246.16L1138.86 248.98L1137.96 251.78L1136.99 254.56L1135.97 257.34L1134.88 260.11L1133.74 262.86L1132.50 265.62L1131.20 268.34L1129.83 271.00L1128.39 273.59L1126.89 276.12L1125.33 278.59L1123.70 280.99L1122.01 283.33L1120.25 285.60L1118.42 287.80L1116.53 289.94L1114.58 292.01L1112.56 294.02L1110.47 295.96L1108.31 297.84L1106.08 299.65L1103.79 301.39L1101.43 303.07L1099.00 304.67L1096.49 306.21L1093.92 307.69L1091.28 309.09L1088.57 310.43L1085.80 311.69L1083.04 312.84L1080.27 313.91L1077.49 314.89L1074.70 315.79L1071.89 316.59L1069.08 317.31L1066.26 317.95L1063.42 318.50L1060.58 318.97L1057.72 319.36L1054.85 319.67L1051.96 319.90L1049.07 320.05L1046.16 320.12L1043.24 320.12L1040.31 320.04L1037.37 319.88L1034.41 319.65L1031.44 319.35L1028.45 318.97L1025.40 318.52L1022.34 317.98L1019.33 317.36L1016.38 316.67L1013.48 315.90L1010.64 315.06L1007.85 314.15L1005.12 313.16L1002.44 312.09L999.81 310.95L997.24 309.73L994.72 308.43L992.26 307.06L989.85 305.61L987.49 304.09L985.19 302.49L982.94 300.81L980.75 299.05L978.60 297.22L976.51 295.30L974.48 293.31L972.49 291.24L970.56 289.09L968.69 286.85L966.86 284.54L965.09 282.15L963.37 279.67L961.71 277.11L960.10 274.47L958.56 271.79L957.14 269.15L955.78 266.50L954.49 263.83L953.27 261.14L952.12 258.43L951.03 255.70L950.00 252.96L949.04 250.20L948.15 247.43L947.32 244.63L946.55 241.82L945.84 239.00L945.20 236.16L944.61 233.30L944.09 230.42L943.63 227.53L943.22 224.62L942.88 221.70L942.59 218.76L942.36 215.81L942.19 212.84L942.07 209.86L942.01 206.86L942.00 203.85L942.00 200.85L942.00 197.85L942.00 194.85L941.99 191.85L941.99 188.85L941.99 185.85L941.99 182.85L941.99 179.85L941.99 176.85L941.98 173.85L941.98 170.85L941.98 167.85L941.98 164.85L941.98 161.85L941.98 158.85L941.98 155.85L941.98 152.85L941.98 149.85L941.98 146.85L941.98 143.85L941.97 140.85L941.97 137.85L941.97 134.85L941.97 131.85L941.97 128.85L941.97 125.85L941.97 122.85L941.97 119.85L941.97 116.85L941.97 113.85L941.97 110.85L941.97 107.85L941.97 104.85L941.97 101.85L941.97 98.85L941.97 95.85L941.97 92.85L941.97 89.85L941.97 86.85L941.97 83.85L941.97 80.85L941.97 77.85L941.97 74.85L941.97 71.85L941.97 68.87L942.01 65.89L942.01 65.76L941.88 62.35L941.80 61.81L941.08 59.12L940.81 58.47L940.37 57.93L939.79 57.53L937.81 56.53L937.29 56.34L936.74 56.26L932.94 56.17L932.40 56.22L929.74 56.74L929.06 56.97L928.47 57.40L928.04 57.97L926.97 59.87L926.76 60.37L926.66 60.91L926.39 64.59L926.39 64.77L926.39 67.77L926.39 67.78L926.40 70.78L926.40 73.78L926.40 76.77L926.40 79.77L926.40 82.77L926.40 85.77L926.40 88.77L926.40 91.77L926.39 94.77L926.39 97.77L926.39 100.77L926.39 103.77L926.38 106.77L926.38 109.78L926.38 112.78L926.38 115.78L926.38 118.78L926.38 121.78L926.38 124.78L926.38 127.78L926.38 130.78L926.38 133.78L926.38 136.78L926.38 139.78L926.38 142.78L926.38 145.79L926.39 148.79L926.39 151.79L926.40 154.79L926.40 157.79L926.41 160.79L926.42 163.79L926.42 166.79L926.43 169.79L926.44 172.79L926.45 175.79L926.47 178.79L926.48 181.79L926.49 184.78L926.49 187.78L926.49 187.78L926.51 190.78L926.51 190.78L926.53 193.78L926.53 193.79L926.56 196.79L926.56 196.80L926.61 199.80L926.61 199.82L926.69 202.82L926.69 202.84L926.79 205.84L926.79 205.86L926.92 208.86L926.92 208.89L927.08 211.89L927.08 211.92L927.29 214.92L927.29 214.96L927.54 217.96L927.54 218.00L927.83 221.01L927.83 221.05L928.17 224.05L928.18 224.09L928.56 227.08L928.57 227.12L929.00 230.09L929.01 230.14L929.49 233.10L929.50 233.14L930.03 236.08L930.04 236.13L930.62 239.06L930.63 239.10L931.26 242.03L931.27 242.07L931.95 244.98L931.96 245.02L932.70 247.92L932.71 247.96L933.50 250.84L933.51 250.89L934.35 253.76L934.37 253.80L935.26 256.66L935.28 256.70L936.23 259.55L936.24 259.59L937.25 262.43L937.27 262.47L938.35 265.34L938.37 265.39L939.51 268.24L939.54 268.29L940.74 271.09L940.77 271.15L942.03 273.90L942.06 273.96L943.38 276.67L943.41 276.72L944.79 279.38L944.82 279.44L946.27 282.05L946.30 282.11L947.81 284.67L947.84 284.73L949.41 287.25L949.45 287.30L951.08 289.77L951.12 289.82L952.82 292.24L952.86 292.29L954.62 294.65L954.67 294.71L956.49 297.01L956.54 297.07L958.44 299.32L958.48 299.38L960.45 301.57L960.50 301.63L962.53 303.77L962.58 303.82L964.68 305.91L964.73 305.96L966.90 307.99L966.96 308.04L969.20 310.00L969.26 310.05L971.57 311.96L971.63 312.01L974.01 313.86L974.07 313.90L976.53 315.69L976.59 315.73L979.12 317.46L979.18 317.50L981.78 319.16L981.85 319.20L984.53 320.80L984.59 320.84L987.31 322.36L987.37 322.39L990.11 323.82L990.17 323.85L992.92 325.20L992.98 325.23L995.75 326.50L995.81 326.53L998.60 327.72L998.66 327.74L1001.46 328.85L1001.52 328.87L1004.33 329.90L1004.39 329.92L1007.22 330.87L1007.28 330.89L1010.12 331.75L1010.19 331.77L1013.04 332.56L1013.11 332.58L1015.97 333.29L1016.04 333.30L1018.91 333.94L1018.98 333.95L1021.87 334.51L1021.93 334.52L1024.84 335.00L1024.90 335.01L1027.82 335.42L1027.88 335.43L1030.81 335.76L1030.87 335.77L1033.81 336.03L1033.87 336.04L1036.82 336.22L1036.88 336.23L1039.84 336.34L1039.90 336.34L1042.87 336.39L1042.93 336.39L1045.91 336.36L1045.97 336.36L1048.96 336.27L1049.02 336.26L1052.02 336.10L1052.08 336.10L1055.09 335.86L1055.14 335.86L1058.16 335.56L1058.22 335.55L1061.25 335.18L1061.30 335.18L1064.34 334.74L1064.39 334.73L1067.47 334.23L1067.53 334.22L1070.66 333.62L1070.73 333.61L1073.80 332.94L1073.87 332.92L1076.90 332.18L1076.96 332.16L1079.94 331.34L1080.00 331.32L1082.92 330.42L1082.99 330.40L1085.86 329.43L1085.93 329.40L1088.74 328.36L1088.81 328.33L1091.57 327.21L1091.64 327.18L1094.35 325.99L1094.42 325.96L1097.08 324.70L1097.14 324.66L1099.75 323.32L1099.82 323.29L1102.37 321.88L1102.43 321.84L1104.94 320.36L1105.00 320.32L1107.45 318.76L1107.51 318.72L1109.91 317.10L1109.97 317.05L1112.32 315.36L1112.38 315.31L1114.68 313.55L1114.73 313.50L1116.98 311.66L1117.03 311.62L1119.23 309.71L1119.28 309.66L1121.42 307.69L1121.47 307.64L1123.56 305.59L1123.62 305.54L1125.65 303.43L1125.70 303.38L1127.69 301.20L1127.74 301.15L1129.67 298.90L1129.72 298.84L1131.61 296.53L1131.65 296.48L1133.48 294.09L1133.52 294.04L1135.31 291.59L1135.35 291.54L1137.08 289.03L1137.12 288.97L1138.80 286.39L1138.84 286.34L1140.47 283.69L1140.50 283.64L1142.09 280.93L1142.12 280.88L1143.65 278.10L1143.68 278.05L1145.10 275.33L1145.13 275.28L1146.48 272.55L1146.50 272.50L1147.78 269.75L1147.81 269.70L1149.02 266.93L1149.04 266.88L1150.18 264.10L1150.20 264.05L1151.28 261.25L1151.30 261.19L1152.32 258.38L1152.34 258.32L1153.29 255.49L1153.31 255.44L1154.20 252.59L1154.21 252.54L1155.04 249.68L1155.05 249.63L1155.83 246.75L1155.84 246.70L1156.55 243.81L1156.56 243.76L1157.22 240.85L1157.23 240.80L1157.82 237.89L1157.83 237.84L1158.38 234.91L1158.38 234.86L1158.87 231.92L1158.88 231.88L1159.32 228.93L1159.33 228.88L1159.71 225.92L1159.72 225.88L1160.05 222.90L1160.06 222.86L1160.34 219.88L1160.35 219.84L1160.58 216.85L1160.59 216.81L1160.78 213.81L1160.78 213.77L1160.93 210.77L1160.93 210.73L1161.03 207.72L1161.03 207.68L1161.09 204.67L1161.09 204.64L1161.12 201.63L1161.14 198.63L1161.17 195.63L1161.19 192.63L1161.21 189.63L1161.23 186.63L1161.25 183.63L1161.26 180.63L1161.28 177.63L1161.29 174.62L1161.30 171.62L1161.32 168.62L1161.33 165.62L1161.34 162.62L1161.35 159.62L1161.35 156.62L1161.36 153.62L1161.37 150.62L1161.37 147.62L1161.38 144.61L1161.38 141.61L1161.38 138.61L1161.39 135.61L1161.39 132.61L1161.39 129.61L1161.39 126.61L1161.39 123.61L1161.39 120.61L1161.39 117.61L1161.39 114.61L1161.38 111.60L1161.38 108.60L1161.38 105.60L1161.37 102.60L1161.37 99.60L1161.37 96.60L1161.36 93.60L1161.36 90.60L1161.35 87.60L1161.35 84.60L1161.35 81.60L1161.34 78.60L1161.34 75.60L1161.33 72.60L1161.33 69.60L1161.32 66.60L1161.32 63.60L1161.31 60.60L1161.31 57.60L1161.31 54.60L1161.30 51.60L1161.30 48.60L1161.30 45.60L1161.30 42.60L1161.29 39.60L1161.29 36.60L1161.29 33.60L1161.29 30.61L1161.30 27.63L1161.35 24.65L1161.42 21.66L1161.42 21.65L1161.47 19.20Z" fill="#A1DAE1"/><path d="M839.14 21.48L839.23 20.85L839.15 20.22L838.92 19.63L838.55 19.11L838.06 18.71L835.48 17.09L835.41 17.05L832.79 15.52L832.74 15.49L830.09 14.02L830.04 13.99L827.37 12.59L827.32 12.56L824.63 11.22L824.58 11.20L821.86 9.92L821.81 9.90L819.07 8.69L819.02 8.67L816.27 7.52L816.21 7.50L813.44 6.42L813.38 6.40L810.59 5.38L810.53 5.36L807.71 4.41L807.66 4.39L804.82 3.50L804.77 3.48L801.91 2.65L801.86 2.64L798.98 1.87L798.93 1.86L796.03 1.16L795.98 1.14L793.07 0.51L793.01 0.49L790.08 -0.08L790.03 -0.09L787.08 -0.61L787.03 -0.62L784.06 -1.07L784.01 -1.08L781.02 -1.47L780.97 -1.47L777.97 -1.80L777.92 -1.81L774.90 -2.08L774.85 -2.08L771.82 -2.29L771.76 -2.29L768.69 -2.43L768.63 -2.43L765.58 -2.50L765.51 -2.50L762.48 -2.48L762.42 -2.48L759.41 -2.39L759.34 -2.38L756.35 -2.21L756.28 -2.20L753.32 -1.95L753.25 -1.94L750.31 -1.60L750.23 -1.59L747.31 -1.17L747.24 -1.15L744.34 -0.64L744.27 -0.63L741.39 -0.03L741.32 -0.02L738.47 0.67L738.39 0.69L735.56 1.46L735.49 1.48L732.68 2.35L732.61 2.37L729.82 3.33L729.75 3.35L726.99 4.40L726.92 4.43L724.18 5.57L724.11 5.60L721.40 6.84L721.32 6.88L718.64 8.21L718.57 8.25L715.90 9.68L715.83 9.72L713.20 11.25L713.13 11.29L710.51 12.92L710.45 12.96L707.86 14.69L707.80 14.74L705.23 16.57L705.16 16.62L702.74 18.49L702.63 18.58L700.37 20.52L700.27 20.61L698.11 22.67L698.02 22.76L695.96 24.94L695.87 25.03L693.92 27.31L693.84 27.40L692.00 29.77L691.93 29.86L690.18 32.33L690.12 32.42L688.49 34.97L688.43 35.06L686.91 37.68L686.85 37.78L685.44 40.47L685.39 40.56L684.09 43.31L684.04 43.41L682.85 46.22L682.81 46.31L681.73 49.17L681.70 49.26L680.73 52.16L680.70 52.25L679.84 55.19L679.82 55.28L679.07 58.24L679.05 58.33L678.43 61.32L678.41 61.41L677.90 64.41L677.89 64.50L677.49 67.51L677.48 67.61L677.21 70.61L677.20 70.71L677.05 73.71L677.05 73.81L677.01 76.79L677.01 76.89L677.10 79.86L677.10 79.96L677.31 82.90L677.32 83.00L677.65 85.91L677.67 86.02L678.12 88.88L678.14 88.99L678.72 91.81L678.75 91.92L679.47 94.76L679.50 94.86L680.39 97.84L680.43 97.94L681.44 100.84L681.47 100.94L682.59 103.77L682.64 103.86L683.86 106.61L683.91 106.71L685.24 109.39L685.28 109.48L686.71 112.09L686.76 112.17L688.29 114.71L688.34 114.80L689.96 117.27L690.01 117.35L691.72 119.76L691.78 119.83L693.57 122.18L693.63 122.25L695.51 124.54L695.56 124.60L697.52 126.83L697.57 126.89L699.60 129.06L699.66 129.12L701.76 131.24L701.81 131.29L703.99 133.35L704.04 133.40L706.28 135.41L706.32 135.46L708.63 137.42L708.67 137.46L711.01 139.37L711.04 139.39L713.39 141.26L713.42 141.28L715.80 143.11L715.82 143.13L718.22 144.93L718.24 144.95L720.66 146.73L720.68 146.74L723.12 148.49L723.14 148.51L725.60 150.23L725.62 150.24L728.09 151.94L728.11 151.95L730.59 153.63L730.61 153.64L733.11 155.30L733.13 155.31L735.64 156.94L735.66 156.95L738.18 158.57L738.20 158.58L740.73 160.18L740.75 160.19L743.29 161.78L743.30 161.78L745.86 163.36L745.87 163.36L748.43 164.93L748.44 164.93L751.01 166.49L751.02 166.49L753.59 168.04L753.60 168.04L756.18 169.58L756.18 169.58L758.76 171.12L758.77 171.12L761.35 172.65L763.94 174.18L766.52 175.71L769.10 177.24L769.11 177.24L771.70 178.76L771.70 178.76L774.29 180.28L776.89 181.79L779.47 183.31L782.06 184.82L784.63 186.35L787.19 187.88L789.74 189.43L792.28 191.00L794.80 192.58L797.30 194.19L799.78 195.82L802.24 197.48L804.67 199.18L807.08 200.91L809.46 202.68L811.80 204.48L814.12 206.35L816.38 208.26L818.57 210.21L820.69 212.23L822.72 214.30L824.67 216.43L826.52 218.63L828.26 220.90L829.90 223.24L831.42 225.66L832.82 228.16L834.09 230.74L835.23 233.42L836.22 236.19L837.05 238.97L837.71 241.77L838.21 244.58L838.57 247.39L838.79 250.23L838.87 253.07L838.83 255.92L838.66 258.79L838.39 261.66L838.00 264.55L837.52 267.44L836.95 270.33L836.29 273.23L835.55 276.11L834.68 278.91L833.69 281.63L832.56 284.28L831.31 286.85L829.93 289.33L828.43 291.74L826.80 294.08L825.06 296.32L823.19 298.49L821.21 300.57L819.10 302.57L816.84 304.52L814.52 306.35L812.15 308.05L809.71 309.64L807.23 311.11L804.69 312.47L802.11 313.72L799.48 314.88L796.80 315.93L794.09 316.88L791.34 317.75L788.55 318.52L785.72 319.21L782.87 319.82L779.99 320.35L777.08 320.81L774.15 321.20L771.20 321.51L768.22 321.77L765.25 321.97L762.29 322.09L759.34 322.16L756.39 322.16L753.46 322.10L750.53 321.98L747.61 321.79L744.70 321.54L741.80 321.22L738.91 320.84L736.02 320.40L733.15 319.90L730.29 319.33L727.44 318.69L724.59 317.99L721.76 317.23L718.94 316.41L716.13 315.52L713.33 314.57L710.54 313.55L707.76 312.47L705.00 311.33L702.26 310.13L699.57 308.83L698.74 308.59L696.10 308.32L695.40 308.34L694.74 308.56L692.33 309.75L691.90 310.02L691.53 310.37L689.43 312.83L689.00 313.57L687.67 317.07L687.52 317.71L687.54 318.36L687.73 318.99L688.07 319.55L689.68 321.51L690.09 321.90L690.57 322.19L693.18 323.39L693.20 323.40L695.94 324.63L696.03 324.67L698.82 325.79L698.83 325.79L701.64 326.90L701.65 326.90L704.53 328.02L704.57 328.04L707.45 329.09L707.49 329.11L710.38 330.11L710.42 330.12L713.31 331.07L713.36 331.08L716.25 331.96L716.30 331.98L719.20 332.80L719.24 332.81L722.15 333.58L722.20 333.59L725.11 334.30L725.16 334.31L728.07 334.95L728.12 334.96L731.04 335.55L731.09 335.56L734.01 336.09L734.06 336.09L736.99 336.56L737.05 336.57L739.98 336.97L740.03 336.98L742.97 337.33L743.02 337.33L745.97 337.62L746.02 337.62L748.97 337.84L749.02 337.85L751.97 338.01L752.02 338.01L754.98 338.11L755.03 338.11L757.99 338.15L758.04 338.15L761.01 338.13L761.06 338.13L764.03 338.04L764.08 338.04L767.06 337.89L767.11 337.89L770.08 337.68L770.14 337.68L773.12 337.40L773.17 337.40L776.15 337.06L776.20 337.05L779.19 336.65L779.24 336.65L782.23 336.18L782.29 336.17L785.28 335.65L785.33 335.64L788.33 335.05L788.38 335.04L791.38 334.38L791.43 334.37L794.45 333.64L794.53 333.62L797.51 332.80L797.59 332.77L800.52 331.86L800.60 331.84L803.46 330.84L803.54 330.81L806.35 329.72L806.43 329.69L809.17 328.51L809.25 328.47L811.93 327.21L812.01 327.16L814.63 325.81L814.71 325.76L817.26 324.31L817.34 324.26L819.83 322.73L819.91 322.67L822.33 321.04L822.41 320.99L824.76 319.26L824.84 319.20L827.13 317.39L827.20 317.33L829.42 315.42L829.49 315.36L831.64 313.36L831.71 313.29L833.79 311.20L833.86 311.12L835.86 308.94L835.93 308.87L837.86 306.59L837.92 306.51L839.79 304.14L839.85 304.06L841.64 301.60L841.69 301.52L843.41 298.96L843.46 298.88L845.10 296.22L845.14 296.14L846.71 293.39L846.76 293.31L848.19 290.55L848.23 290.45L849.52 287.69L849.56 287.59L850.72 284.80L850.76 284.70L851.78 281.88L851.82 281.78L852.72 278.94L852.75 278.84L853.54 275.97L853.56 275.87L854.23 272.98L854.25 272.89L854.82 269.97L854.83 269.88L855.29 266.94L855.30 266.85L855.66 263.89L855.66 263.81L855.92 260.83L855.93 260.75L856.09 257.76L856.10 257.68L856.17 254.67L856.17 254.60L856.16 251.58L856.16 251.49L856.06 248.49L856.05 248.39L855.83 245.41L855.81 245.30L855.46 242.34L855.45 242.22L854.96 239.29L854.94 239.17L854.31 236.26L854.28 236.13L853.51 233.26L853.47 233.13L852.54 230.28L852.49 230.15L851.40 227.35L851.34 227.21L850.08 224.45L850.02 224.32L848.58 221.60L848.53 221.51L846.99 218.87L846.94 218.79L845.32 216.24L845.27 216.16L843.56 213.69L843.51 213.61L841.72 211.21L841.67 211.14L839.81 208.81L839.76 208.75L837.82 206.48L837.77 206.42L835.76 204.23L835.71 204.17L833.64 202.03L833.59 201.98L831.45 199.91L831.40 199.86L829.21 197.84L829.16 197.79L826.91 195.83L826.86 195.79L824.56 193.87L824.51 193.83L822.16 191.96L822.12 191.93L819.72 190.10L819.68 190.07L817.23 188.29L817.20 188.26L814.75 186.53L814.72 186.51L812.25 184.81L812.22 184.79L809.73 183.12L809.71 183.11L807.19 181.46L807.17 181.45L804.65 179.83L804.63 179.82L802.09 178.23L802.07 178.22L799.52 176.64L799.51 176.63L796.95 175.07L796.93 175.06L794.36 173.51L794.36 173.51L791.78 171.97L791.77 171.97L789.19 170.43L789.19 170.43L786.61 168.90L784.03 167.37L781.44 165.84L781.43 165.83L778.85 164.31L778.84 164.31L776.25 162.80L776.25 162.79L773.65 161.28L771.05 159.77L768.46 158.27L765.87 156.76L763.28 155.24L760.70 153.73L758.12 152.20L755.56 150.67L753.00 149.13L750.46 147.57L747.92 146.00L745.40 144.41L742.90 142.80L740.41 141.17L737.93 139.52L735.48 137.85L733.04 136.14L730.63 134.41L728.24 132.65L725.87 130.85L723.53 129.02L721.21 127.15L718.92 125.22L716.70 123.24L714.57 121.23L712.51 119.17L710.54 117.06L708.65 114.90L706.86 112.68L705.16 110.41L703.56 108.08L702.06 105.68L700.67 103.22L699.39 100.68L698.22 98.08L697.17 95.39L696.23 92.62L695.42 89.76L694.74 86.81L694.24 84.02L693.89 81.30L693.67 78.55L693.59 75.77L693.63 72.96L693.81 70.15L694.13 67.33L694.57 64.51L695.15 61.71L695.87 58.93L696.71 56.17L697.69 53.46L698.80 50.79L700.05 48.18L701.42 45.63L702.93 43.15L704.57 40.76L706.34 38.44L708.24 36.22L710.28 34.10L712.44 32.10L714.74 30.20L717.18 28.43L719.71 26.78L722.27 25.23L724.86 23.79L727.48 22.45L730.11 21.21L732.77 20.08L735.45 19.04L738.16 18.11L740.89 17.27L743.64 16.53L746.42 15.87L749.22 15.32L752.04 14.85L754.89 14.47L757.76 14.19L760.66 13.98L763.58 13.87L766.53 13.84L769.50 13.89L772.49 14.02L775.51 14.24L778.54 14.53L781.51 14.89L784.46 15.31L787.38 15.80L790.27 16.36L793.14 16.98L795.99 17.67L798.81 18.43L801.60 19.26L804.38 20.15L807.13 21.11L809.85 22.13L812.56 23.23L815.25 24.39L817.91 25.62L820.55 26.91L823.18 28.28L825.81 29.72L825.94 29.79L828.90 31.20L829.55 31.40L830.24 31.42L832.79 31.15L833.41 31.00L833.97 30.70L834.43 30.27L836.39 27.95L836.66 27.57L838.10 25.03L838.33 24.45L839.14 21.48Z" fill="#D1E2B6"/><path d="M-2.33 234.84L-2.49 235.49L-2.46 236.15L-2.27 236.79L-1.91 237.35L-1.42 237.79L-0.82 238.09L-0.17 238.23L4.72 238.56L4.84 238.57L8.27 238.64L8.81 238.60L10.99 238.16L11.55 237.98L12.04 237.68L13.41 236.62L13.79 236.25L14.08 235.81L15.04 234.00L15.18 233.68L16.15 231.00L17.42 227.62L18.52 224.85L18.52 224.85L19.62 222.06L19.62 222.05L20.72 219.26L21.82 216.47L22.91 213.67L24.01 210.88L25.10 208.08L26.18 205.28L27.27 202.48L28.35 199.68L29.44 196.89L30.52 194.09L31.60 191.29L32.68 188.49L33.77 185.69L34.85 182.89L35.93 180.09L37.01 177.29L38.09 174.50L39.17 171.70L40.26 168.90L41.34 166.10L42.43 163.30L43.51 160.51L44.60 157.71L45.68 154.91L46.76 152.11L47.85 149.31L48.93 146.52L50.02 143.72L51.10 140.92L52.19 138.12L53.27 135.33L54.36 132.53L55.44 129.73L56.52 126.93L57.61 124.14L58.69 121.34L59.78 118.54L60.86 115.74L61.95 112.95L63.03 110.15L64.12 107.35L65.20 104.56L66.29 101.76L67.37 98.96L68.46 96.17L69.54 93.37L70.63 90.57L71.71 87.78L72.80 84.98L73.88 82.18L74.97 79.39L76.06 76.59L77.14 73.79L78.23 71.00L79.31 68.20L80.40 65.40L81.49 62.61L82.57 59.81L83.66 57.01L84.74 54.22L85.83 51.42L86.92 48.62L88.00 45.83L89.09 43.03L90.18 40.23L91.27 37.44L92.35 34.64L93.44 31.84L94.53 29.05L95.62 26.25L96.70 23.46L96.76 23.31L97.16 22.03L97.71 23.29L98.83 26.02L99.92 28.80L101.01 31.59L102.10 34.39L103.20 37.18L104.29 39.97L105.38 42.77L106.47 45.56L107.56 48.36L108.65 51.16L109.74 53.95L110.83 56.75L111.92 59.54L113.01 62.34L114.10 65.13L115.19 67.93L116.28 70.73L117.37 73.52L118.45 76.32L119.54 79.11L120.63 81.91L121.72 84.70L122.81 87.50L123.90 90.30L124.99 93.09L126.08 95.89L127.17 98.68L128.26 101.48L129.35 104.27L130.43 107.07L131.52 109.86L132.61 112.66L133.71 115.45L134.80 118.25L135.89 121.04L136.98 123.84L138.07 126.63L139.16 129.43L140.25 132.22L141.34 135.02L142.44 137.81L143.53 140.61L144.62 143.40L145.71 146.20L146.80 148.99L147.89 151.79L148.98 154.58L150.07 157.38L151.17 160.17L152.26 162.97L153.35 165.76L154.44 168.56L155.53 171.36L156.62 174.15L157.71 176.95L158.80 179.74L159.90 182.54L160.99 185.33L162.08 188.12L163.17 190.92L164.26 193.71L165.35 196.51L166.45 199.30L167.54 202.10L168.63 204.89L169.72 207.69L170.81 210.48L171.90 213.28L173.00 216.07L174.09 218.87L175.18 221.66L176.27 224.46L177.36 227.25L178.45 230.05L179.55 232.84L180.64 235.63L181.73 238.43L182.82 241.22L183.92 244.02L185.01 246.81L186.10 249.61L187.19 252.40L188.28 255.19L189.38 257.99L190.47 260.78L191.56 263.58L192.65 266.37L193.75 269.16L194.84 271.96L195.93 274.75L197.02 277.55L198.12 280.34L199.21 283.13L200.30 285.93L201.39 288.72L202.49 291.52L203.59 294.31L204.69 297.10L205.79 299.89L206.89 302.69L207.99 305.48L209.09 308.27L210.20 311.06L211.30 313.85L212.41 316.64L213.51 319.43L214.62 322.22L215.72 325.01L216.83 327.80L216.83 327.82L218.22 331.24L218.37 331.55L219.72 333.90L220.12 334.43L220.64 334.83L222.39 335.84L222.92 336.06L223.49 336.16L226.41 336.34L226.66 336.34L230.24 336.18L230.98 336.04L231.65 335.67L233.87 333.96L234.36 333.48L234.69 332.88L234.84 332.21L234.81 331.52L234.28 328.65L234.14 328.17L233.02 325.41L231.93 322.63L230.84 319.84L229.75 317.05L228.66 314.25L227.57 311.46L226.47 308.67L225.38 305.87L224.29 303.08L223.20 300.29L222.11 297.49L221.02 294.70L219.92 291.91L218.83 289.11L217.74 286.32L216.65 283.52L215.56 280.73L214.46 277.93L213.37 275.14L212.28 272.35L211.19 269.55L210.10 266.76L209.00 263.96L207.91 261.17L206.82 258.37L205.73 255.58L204.63 252.78L203.54 249.99L202.45 247.19L201.35 244.40L200.26 241.60L199.17 238.81L198.08 236.01L196.98 233.22L195.89 230.42L194.80 227.63L193.70 224.83L192.61 222.04L191.52 219.24L190.42 216.45L189.33 213.65L188.24 210.86L187.14 208.06L186.05 205.27L184.95 202.47L183.86 199.68L182.77 196.89L181.67 194.09L180.58 191.30L179.49 188.50L178.39 185.71L177.30 182.92L176.21 180.12L175.11 177.33L174.02 174.53L172.92 171.74L171.83 168.95L170.74 166.15L169.64 163.36L168.55 160.56L167.46 157.77L166.36 154.98L165.27 152.18L164.18 149.39L163.08 146.59L161.99 143.80L160.89 141.01L159.80 138.21L158.71 135.42L157.61 132.63L156.52 129.83L155.43 127.04L154.33 124.24L153.24 121.45L152.15 118.66L151.05 115.86L149.96 113.07L148.87 110.27L147.77 107.48L146.68 104.69L145.58 101.89L144.49 99.10L143.40 96.30L142.30 93.51L141.21 90.72L140.12 87.92L139.02 85.13L137.93 82.33L136.84 79.54L135.74 76.75L134.65 73.95L133.56 71.16L132.46 68.36L131.37 65.57L130.27 62.78L129.18 59.98L128.08 57.19L126.99 54.39L125.89 51.60L124.79 48.81L123.70 46.01L122.60 43.22L121.51 40.43L120.41 37.64L119.31 34.85L118.21 32.05L117.11 29.26L116.01 26.47L114.91 23.68L113.81 20.89L112.70 18.10L111.60 15.31L110.49 12.52L109.38 9.74L108.33 6.99L108.32 6.97L107.25 4.25L106.99 3.76L106.63 3.34L104.47 1.31L103.97 0.94L103.40 0.71L100.17 -0.15L99.61 -0.23L96.65 -0.34L95.99 -0.27L93.33 0.35L92.66 0.62L90.31 1.96L89.76 2.38L87.75 4.43L87.39 4.89L85.74 7.64L85.56 7.99L84.36 10.96L84.34 11.00L83.26 13.79L82.17 16.59L81.09 19.39L80.00 22.19L78.92 24.98L77.83 27.78L76.75 30.58L75.66 33.38L74.58 36.17L73.49 38.97L72.41 41.77L71.32 44.56L70.24 47.36L69.15 50.16L68.07 52.96L66.98 55.75L65.90 58.55L64.81 61.35L63.73 64.15L62.64 66.94L61.56 69.74L60.47 72.54L59.39 75.33L58.30 78.13L57.22 80.93L56.13 83.73L55.05 86.52L53.96 89.32L52.88 92.12L51.79 94.92L50.71 97.71L49.62 100.51L48.54 103.31L47.45 106.11L46.37 108.90L45.28 111.70L44.20 114.50L43.11 117.29L42.03 120.09L40.94 122.89L39.86 125.69L38.77 128.48L37.69 131.28L36.60 134.08L35.52 136.88L34.43 139.67L33.35 142.47L32.26 145.27L31.18 148.06L30.09 150.86L29.01 153.66L27.92 156.46L26.84 159.25L25.75 162.05L24.67 164.85L23.58 167.65L22.50 170.44L21.41 173.24L20.33 176.04L19.24 178.84L18.16 181.63L17.07 184.43L15.99 187.23L14.90 190.02L13.82 192.82L12.73 195.62L11.65 198.42L10.58 201.18L9.52 203.93L8.45 206.69L7.39 209.45L6.33 212.22L5.26 215.00L4.19 217.79L3.12 220.59L2.04 223.41L0.96 226.24L-0.13 229.09L-1.23 231.95L-2.33 234.84Z" fill="#F5897B"/><path d="M492.27 193.96L493.81 193.80L493.84 193.80L496.93 193.45L496.96 193.45L500.01 193.06L500.05 193.06L503.07 192.63L503.11 192.63L506.10 192.16L506.14 192.15L509.10 191.64L509.15 191.63L512.08 191.06L512.13 191.05L515.02 190.43L515.08 190.41L517.95 189.73L518.01 189.72L520.85 188.97L520.91 188.95L523.73 188.14L523.79 188.12L526.58 187.23L526.65 187.21L529.41 186.25L529.48 186.23L532.22 185.19L532.29 185.16L535.04 184.02L535.10 184.00L537.90 182.75L537.96 182.73L540.71 181.42L540.77 181.39L543.47 180.03L543.53 179.99L546.17 178.56L546.24 178.52L548.82 177.02L548.89 176.98L551.41 175.40L551.48 175.35L553.93 173.70L554.00 173.65L556.39 171.91L556.46 171.86L558.77 170.04L558.85 169.98L561.08 168.07L561.16 168.00L563.32 166.01L563.39 165.94L565.47 163.85L565.54 163.77L567.53 161.58L567.61 161.50L569.51 159.21L569.58 159.13L571.39 156.74L571.46 156.64L573.18 154.15L573.25 154.05L574.87 151.44L574.93 151.34L576.45 148.62L576.50 148.52L577.92 145.68L577.96 145.60L579.28 142.71L579.30 142.66L580.53 139.77L580.56 139.71L581.70 136.82L581.72 136.75L582.78 133.86L582.80 133.80L583.78 130.90L583.80 130.84L584.69 127.94L584.70 127.87L585.51 124.97L585.52 124.90L586.24 122.00L586.26 121.93L586.89 119.03L586.91 118.96L587.46 116.05L587.47 115.98L587.94 113.07L587.95 113.00L588.33 110.09L588.34 110.02L588.64 107.10L588.64 107.03L588.86 104.12L588.86 104.05L589.00 101.13L589.00 101.06L589.06 98.14L589.06 98.07L589.03 95.15L589.03 95.08L588.91 92.15L588.91 92.08L588.72 89.16L588.71 89.09L588.44 86.16L588.43 86.09L588.08 83.17L588.07 83.10L587.64 80.17L587.63 80.10L587.12 77.17L587.10 77.11L586.51 74.17L586.50 74.11L585.83 71.18L585.81 71.12L585.06 68.18L585.04 68.12L584.21 65.18L584.20 65.12L583.29 62.19L583.27 62.13L582.28 59.19L582.26 59.13L581.20 56.19L581.18 56.13L580.04 53.22L580.00 53.13L578.77 50.30L578.73 50.21L577.41 47.46L577.37 47.37L575.95 44.70L575.90 44.61L574.40 42.02L574.34 41.94L572.74 39.43L572.69 39.34L570.99 36.92L570.93 36.83L569.15 34.49L569.09 34.41L567.22 32.15L567.15 32.07L565.19 29.89L565.12 29.81L563.06 27.71L562.99 27.64L560.85 25.62L560.78 25.55L558.55 23.61L558.47 23.54L556.16 21.68L556.08 21.62L553.68 19.84L553.60 19.79L551.11 18.08L551.03 18.03L548.46 16.41L548.38 16.36L545.72 14.82L545.65 14.78L542.90 13.31L542.83 13.27L540.03 11.90L539.96 11.87L537.18 10.60L537.12 10.58L534.32 9.39L534.26 9.37L531.44 8.27L531.37 8.25L528.53 7.23L528.47 7.21L525.61 6.27L525.55 6.25L522.67 5.40L522.61 5.38L519.72 4.60L519.66 4.59L516.75 3.89L516.69 3.87L513.77 3.25L513.70 3.24L510.77 2.69L510.71 2.68L507.76 2.20L507.70 2.19L504.73 1.79L504.67 1.78L501.70 1.45L501.64 1.44L498.66 1.18L498.60 1.18L495.60 0.98L495.55 0.98L492.54 0.85L492.49 0.85L489.48 0.79L489.47 0.79L486.46 0.74L486.46 0.74L483.46 0.69L483.45 0.69L480.45 0.65L480.44 0.65L477.44 0.62L477.44 0.62L474.43 0.59L474.43 0.59L471.42 0.57L471.42 0.57L468.41 0.55L468.41 0.55L465.41 0.53L465.40 0.53L462.40 0.52L462.39 0.52L459.39 0.51L459.39 0.51L456.38 0.50L453.37 0.50L450.36 0.50L447.36 0.50L444.35 0.50L441.34 0.50L438.33 0.51L435.32 0.52L432.32 0.53L429.31 0.54L426.30 0.55L423.29 0.56L420.29 0.57L417.28 0.58L414.28 0.59L411.27 0.60L408.26 0.60L405.26 0.61L402.25 0.62L399.25 0.62L396.24 0.62L396.22 0.62L393.22 0.64L392.92 0.67L389.98 1.05L389.33 1.23L388.75 1.58L388.29 2.06L386.47 4.57L386.16 5.14L386.01 5.77L385.68 8.83L385.69 9.43L385.85 10.02L386.85 12.53L387.17 13.11L387.64 13.58L389.82 15.28L390.32 15.58L390.87 15.76L394.02 16.37L394.51 16.42L397.51 16.42L397.52 16.42L400.52 16.41L403.52 16.41L406.53 16.41L409.53 16.40L412.54 16.40L415.54 16.40L418.55 16.40L421.55 16.40L424.56 16.39L427.57 16.39L430.57 16.39L433.58 16.39L436.59 16.39L439.59 16.38L442.60 16.38L445.60 16.38L448.61 16.38L451.62 16.38L454.62 16.38L457.63 16.38L460.63 16.38L463.64 16.38L466.64 16.39L469.65 16.39L472.65 16.39L475.66 16.40L478.66 16.40L481.66 16.41L484.63 16.44L487.59 16.50L490.55 16.61L493.50 16.76L496.46 16.97L499.41 17.23L502.37 17.55L505.34 17.94L508.28 18.40L511.18 18.94L514.05 19.56L516.88 20.25L519.69 21.03L522.46 21.89L525.20 22.83L527.91 23.86L530.59 24.97L533.24 26.17L535.86 27.46L538.46 28.85L541.01 30.32L543.56 31.92L546.01 33.62L548.33 35.40L550.54 37.27L552.63 39.23L554.60 41.27L556.45 43.40L558.20 45.61L559.83 47.90L561.36 50.28L562.78 52.73L564.10 55.27L565.31 57.90L566.41 60.60L567.42 63.38L568.32 66.25L569.12 69.10L569.83 71.95L570.45 74.82L570.99 77.69L571.45 80.56L571.83 83.45L572.12 86.34L572.34 89.24L572.48 92.15L572.54 95.07L572.52 98.00L572.43 100.94L572.27 103.90L572.03 106.87L571.72 109.85L571.34 112.86L570.85 115.84L570.25 118.78L569.54 121.67L568.73 124.51L567.82 127.30L566.81 130.04L565.69 132.72L564.48 135.35L563.18 137.91L561.77 140.41L560.28 142.85L558.69 145.22L557.02 147.52L555.26 149.75L553.41 151.90L551.48 153.98L549.46 155.98L547.37 157.90L545.19 159.74L542.94 161.49L540.61 163.16L538.21 164.74L535.74 166.22L533.19 167.61L530.57 168.91L527.89 170.10L525.14 171.20L522.33 172.19L519.45 173.08L516.51 173.86L513.62 174.57L510.72 175.23L507.82 175.84L504.91 176.39L502.01 176.89L499.10 177.31L496.20 177.67L493.28 177.96L490.36 178.16L487.43 178.29L484.50 178.33L481.52 178.28L478.50 178.22L478.02 178.26L475.17 178.76L474.61 178.93L474.09 179.23L471.79 180.99L471.33 181.45L471.01 182.00L469.74 184.98L469.59 185.45L469.54 185.94L469.52 188.75L469.68 189.66L470.71 192.34L471.01 192.92L472.89 195.51L473.00 195.66L474.93 197.95L476.82 200.26L478.70 202.58L480.56 204.92L482.43 207.27L484.29 209.63L484.29 209.63L486.16 211.99L486.17 211.99L488.04 214.34L488.05 214.35L489.95 216.69L489.96 216.70L491.87 219.03L491.87 219.03L493.78 221.35L495.70 223.66L497.61 225.98L499.53 228.30L501.45 230.61L503.36 232.93L505.28 235.24L507.20 237.56L509.12 239.87L511.04 242.19L512.96 244.50L514.88 246.82L516.79 249.13L518.71 251.44L520.63 253.76L522.54 256.07L524.46 258.39L526.37 260.71L528.29 263.02L530.20 265.34L532.11 267.66L534.02 269.98L535.93 272.30L537.84 274.62L539.75 276.95L541.67 279.27L543.58 281.59L545.50 283.91L547.41 286.23L549.32 288.55L551.24 290.87L553.15 293.18L555.06 295.50L556.97 297.82L558.87 300.14L560.77 302.47L562.67 304.79L564.56 307.12L566.45 309.45L568.34 311.78L570.22 314.12L572.09 316.46L573.96 318.81L575.82 321.16L577.67 323.51L579.52 325.87L581.36 328.24L583.19 330.62L583.32 330.77L585.58 333.27L585.96 333.61L588.30 335.33L588.81 335.61L591.27 336.65L591.81 336.81L594.44 337.27L594.88 337.31L597.73 337.31L598.01 337.29L601.13 336.92L601.55 336.84L604.31 336.02L604.94 335.72L605.47 335.27L605.86 334.68L606.06 334.02L606.07 333.32L605.89 332.64L605.53 332.04L603.63 329.70L601.72 327.36L599.82 325.02L597.92 322.68L596.01 320.34L594.11 318.01L592.20 315.67L590.30 313.34L588.40 311.01L586.50 308.68L584.59 306.36L582.69 304.03L580.79 301.71L578.89 299.38L576.99 297.06L575.08 294.74L573.18 292.42L571.28 290.10L569.38 287.79L567.48 285.47L565.57 283.15L563.67 280.84L561.77 278.52L559.87 276.21L557.97 273.89L556.06 271.58L554.16 269.27L552.26 266.95L550.36 264.64L548.45 262.33L546.55 260.02L544.65 257.70L542.74 255.39L540.84 253.08L538.93 250.76L537.03 248.45L535.13 246.13L533.22 243.82L531.31 241.50L529.41 239.19L527.50 236.87L525.59 234.55L523.69 232.24L521.78 229.92L519.87 227.60L517.96 225.27L516.05 222.95L514.14 220.63L512.23 218.30L510.32 215.98L508.41 213.65L506.49 211.32L504.58 208.99L502.67 206.65L500.75 204.32L498.84 201.98L496.92 199.64L495.00 197.30L493.09 194.96L492.27 193.96Z" fill="#F7E0AC"/><path d="M1156.48 18.61L1156.54 19.15L1156.72 19.67L1157.00 20.14L1158.80 22.46L1160.60 24.85L1162.41 27.25L1164.22 29.65L1166.03 32.05L1167.83 34.45L1169.64 36.86L1171.45 39.26L1173.26 41.66L1175.07 44.06L1176.88 46.46L1178.69 48.86L1180.49 51.26L1182.30 53.66L1184.11 56.07L1185.92 58.47L1187.73 60.87L1189.54 63.27L1191.35 65.67L1193.16 68.07L1194.97 70.47L1196.78 72.87L1198.59 75.27L1200.40 77.67L1202.21 80.07L1204.02 82.47L1205.83 84.88L1207.63 87.28L1209.44 89.68L1211.25 92.08L1213.06 94.48L1214.87 96.88L1216.68 99.28L1218.49 101.68L1220.30 104.08L1222.10 106.49L1223.91 108.89L1225.72 111.29L1227.53 113.69L1229.33 116.09L1231.14 118.49L1232.95 120.89L1234.76 123.30L1236.56 125.70L1238.37 128.10L1240.18 130.50L1241.98 132.91L1243.79 135.31L1245.59 137.71L1247.40 140.11L1249.20 142.52L1251.01 144.92L1252.81 147.32L1254.62 149.73L1256.42 152.13L1258.22 154.54L1260.03 156.94L1261.83 159.35L1263.64 161.75L1265.44 164.16L1267.24 166.56L1269.05 168.97L1270.85 171.37L1272.65 173.78L1274.46 176.18L1276.26 178.59L1278.06 180.99L1279.86 183.40L1281.67 185.81L1283.47 188.21L1285.27 190.62L1287.07 193.02L1288.88 195.43L1290.68 197.84L1292.48 200.24L1294.28 202.65L1296.09 205.05L1297.89 207.46L1299.69 209.87L1301.49 212.27L1303.29 214.68L1305.10 217.08L1306.90 219.49L1308.70 221.90L1310.50 224.30L1312.30 226.71L1314.11 229.12L1315.91 231.52L1317.71 233.93L1319.51 236.34L1321.31 238.74L1323.11 241.15L1324.91 243.55L1326.72 245.96L1328.52 248.37L1330.32 250.77L1332.12 253.18L1333.92 255.59L1335.72 257.99L1337.52 260.40L1339.32 262.81L1341.13 265.21L1342.93 267.62L1344.73 270.03L1346.53 272.43L1348.33 274.84L1350.13 277.25L1351.93 279.65L1353.73 282.06L1355.53 284.47L1357.34 286.87L1359.14 289.28L1360.94 291.69L1362.74 294.09L1364.54 296.50L1366.34 298.91L1368.14 301.31L1369.94 303.72L1371.74 306.13L1373.55 308.53L1375.35 310.94L1377.15 313.35L1378.95 315.75L1380.75 318.16L1382.55 320.56L1384.35 322.97L1386.15 325.38L1387.95 327.78L1389.76 330.19L1389.76 330.20L1391.57 332.59L1391.90 332.95L1394.10 334.92L1394.64 335.28L1395.26 335.50L1395.91 335.55L1396.55 335.43L1397.14 335.14L1397.63 334.72L1399.56 332.56L1399.88 332.11L1400.09 331.61L1401.10 328.21L1401.19 327.85L1401.63 324.69L1401.65 324.24L1401.53 321.36L1401.45 320.82L1400.76 318.23L1400.53 317.67L1399.28 315.40L1398.92 314.89L1397.11 312.96L1396.99 312.83L1395.13 311.11L1393.57 308.87L1393.52 308.80L1391.71 306.39L1389.91 303.98L1388.11 301.58L1386.31 299.17L1384.50 296.77L1382.70 294.36L1380.90 291.96L1379.10 289.55L1377.29 287.14L1375.49 284.74L1373.69 282.33L1371.89 279.93L1370.09 277.52L1368.28 275.11L1366.48 272.71L1364.68 270.30L1362.88 267.90L1361.08 265.49L1359.27 263.08L1357.47 260.68L1355.67 258.27L1353.87 255.87L1352.07 253.46L1350.26 251.05L1348.46 248.65L1346.66 246.24L1344.86 243.83L1343.06 241.43L1341.26 239.02L1339.45 236.62L1337.65 234.21L1335.85 231.80L1334.05 229.40L1332.25 226.99L1330.44 224.58L1328.64 222.18L1326.84 219.77L1325.04 217.37L1323.24 214.96L1321.43 212.55L1319.63 210.15L1317.83 207.74L1316.03 205.34L1314.23 202.93L1312.42 200.52L1310.62 198.12L1308.82 195.71L1307.02 193.31L1305.21 190.90L1303.41 188.49L1301.61 186.09L1299.81 183.68L1298.00 181.28L1296.20 178.87L1294.40 176.47L1292.59 174.06L1290.79 171.65L1288.99 169.25L1287.18 166.84L1285.38 164.44L1283.58 162.03L1281.77 159.63L1279.97 157.22L1278.17 154.82L1276.36 152.41L1274.56 150.01L1272.76 147.60L1270.95 145.20L1269.15 142.79L1267.35 140.38L1265.54 137.98L1263.74 135.57L1261.94 133.17L1260.14 130.76L1258.33 128.36L1256.53 125.95L1254.73 123.55L1252.92 121.14L1251.12 118.74L1249.31 116.33L1247.51 113.93L1245.71 111.52L1243.90 109.12L1242.10 106.71L1240.30 104.31L1238.49 101.90L1236.69 99.50L1234.88 97.09L1233.08 94.69L1231.28 92.29L1229.47 89.88L1227.67 87.48L1225.86 85.07L1224.06 82.67L1222.25 80.26L1220.45 77.86L1218.65 75.46L1216.84 73.05L1215.04 70.65L1213.23 68.24L1211.43 65.84L1209.62 63.44L1207.81 61.03L1206.01 58.63L1204.20 56.23L1202.40 53.82L1200.59 51.42L1198.79 49.02L1196.98 46.61L1195.17 44.21L1193.37 41.81L1191.56 39.40L1189.75 37.00L1187.95 34.60L1186.14 32.20L1184.33 29.79L1182.53 27.39L1180.72 24.99L1178.91 22.59L1177.10 20.19L1175.29 17.78L1173.49 15.38L1171.68 12.98L1169.90 10.62L1168.28 8.27L1166.71 5.79L1166.58 5.61L1164.78 3.25L1164.38 2.84L1162.08 0.93L1161.47 0.56L1160.79 0.38L1160.08 0.39L1159.41 0.60L1157.90 1.32L1157.32 1.71L1156.87 2.24L1156.58 2.88L1156.48 3.57L1156.48 18.61Z" fill="#AE98C9"/><path d="M1394.11 333.45L1394.21 334.12L1394.49 334.75L1394.92 335.28L1395.49 335.66L1396.13 335.88L1396.82 335.92L1400.20 335.64L1400.88 335.48L1403.54 334.47L1404.36 333.95L1406.25 332.16L1406.57 331.78L1406.82 331.35L1407.94 328.79L1408.13 328.05L1408.49 324.76L1408.50 324.49L1408.50 65.95L1408.50 62.94L1408.50 62.91L1408.46 59.91L1408.46 59.88L1408.40 56.74L1408.29 56.06L1408.01 55.45L1406.57 53.20L1406.14 52.68L1405.59 52.31L1404.95 52.09L1401.70 51.44L1401.13 51.39L1397.85 51.51L1397.21 51.61L1396.62 51.88L1394.81 53.00L1394.34 53.37L1393.97 53.84L1393.73 54.39L1392.94 56.94L1392.84 57.56L1392.67 61.14L1392.67 61.27L1392.68 64.27L1392.68 67.28L1392.68 70.29L1392.68 73.30L1392.68 76.30L1392.68 79.31L1392.68 82.32L1392.68 85.32L1392.68 88.33L1392.68 91.33L1392.68 94.34L1392.68 97.35L1392.68 100.35L1392.68 103.36L1392.68 106.37L1392.68 109.37L1392.68 112.38L1392.68 115.39L1392.68 118.39L1392.68 121.40L1392.68 124.40L1392.68 127.41L1392.68 130.42L1392.68 133.42L1392.68 136.43L1392.68 139.44L1392.68 142.44L1392.68 145.45L1392.68 148.45L1392.68 151.46L1392.68 154.47L1392.68 157.47L1392.68 160.48L1392.68 163.49L1392.68 166.49L1392.68 169.50L1392.67 172.50L1392.67 175.51L1392.67 178.52L1392.67 181.52L1392.67 184.53L1392.67 187.53L1392.67 190.54L1392.67 193.55L1392.67 196.55L1392.67 199.56L1392.67 202.56L1392.67 205.57L1392.67 208.58L1392.67 211.58L1392.67 214.59L1392.66 217.59L1392.66 220.60L1392.66 223.61L1392.66 226.61L1392.66 229.62L1392.66 232.63L1392.66 235.63L1392.66 238.64L1392.66 241.64L1392.65 244.65L1392.65 247.66L1392.65 250.66L1392.65 253.67L1392.65 256.68L1392.65 259.68L1392.65 262.69L1392.64 265.69L1392.64 268.70L1392.64 271.71L1392.64 274.71L1392.64 277.72L1392.64 280.73L1392.63 283.73L1392.63 286.74L1392.63 289.75L1392.63 292.75L1392.63 295.76L1392.62 298.77L1392.62 301.77L1392.62 304.78L1392.63 304.95L1392.82 307.75L1392.74 309.98L1391.58 312.17L1391.34 312.83L1391.30 313.52L1391.44 314.21L1391.77 314.82L1393.25 316.85L1394.05 318.79L1394.08 321.39L1394.03 324.36L1394.03 324.41L1394.05 327.42L1394.05 327.44L1394.09 330.44L1394.11 333.45Z" fill="#D5A0C9"/><path d="M289.99 229.89L289.99 229.91L290.01 233.04L290.07 233.56L290.23 234.06L291.34 236.50L291.71 237.09L292.23 237.55L292.86 237.85L295.77 238.78L296.55 238.90L300.10 238.88L300.63 238.83L301.13 238.66L303.14 237.74L303.68 237.41L304.12 236.95L304.43 236.40L305.34 234.12L305.51 233.35L305.74 229.65L305.75 229.50L305.75 13.28L305.77 10.27L305.77 10.17L305.66 6.99L305.56 6.37L304.74 3.56L304.45 2.92L303.99 2.38L302.15 0.78L301.62 0.42L301.02 0.21L297.94 -0.43L297.08 -0.46L293.50 0.05L292.78 0.26L292.16 0.68L291.69 1.27L290.43 3.45L290.18 4.01L290.09 4.62L289.99 7.58L289.99 7.66L289.99 10.67L289.99 229.89Z" fill="#F9AA8E"/>
  <rect x="0" y="0" width="1406" height="336" fill="url(#asun-sheen)" mask="url(#asun-mask)" opacity="0">
    <animate attributeName="opacity" values="0;1;1;0;0" keyTimes="0;0.068;0.585;0.68;1" dur="3.4s" repeatCount="indefinite"/>
  </rect>
</svg>